<svg width="43" height="63" viewBox="0 0 43 63" fill="none" xmlns="http://www.w3.org/2000/svg">
<g clip-path="url(#clip0_56_245)">
<path d="M43 63L0 63L0 21.7308C0 18.8778 0.556049 16.0527 1.63639 13.4168C2.71674 10.7809 4.30023 8.38591 6.29645 6.3685C8.29267 4.35109 10.6625 2.7508 13.2707 1.65899C15.8789 0.567177 18.6743 0.00522614 21.4974 0.00522614C24.3209 0.00453949 27.1169 0.565979 29.7257 1.65749C32.3345 2.74899 34.705 4.34918 36.7017 6.36665C38.6985 8.38413 40.2824 10.7794 41.3631 13.4156C42.4438 16.0518 43 18.8773 43 21.7308V63Z" fill="#2C285B"/>
<path d="M8.94607 27.5041L7.33454 25.5727L4.8501 25.8233L6.16721 23.6779L5.16517 21.3654L7.5928 21.9709L9.45742 20.2953L9.63821 22.8113L11.7921 24.085L9.47809 25.035L8.94607 27.5041Z" fill="#FFEB9A"/>
<path d="M15.1908 31.9359L13.383 31.2207L11.7766 32.3221L11.8902 30.3646L10.3613 29.1641L12.2363 28.6682L12.8974 26.8255L13.9408 28.475L15.8829 28.5377L14.6484 30.0567L15.1908 31.9359Z" fill="#FFF8D5"/>
<path d="M10.3612 35.616L8.96665 35.9344L8.4398 37.2759L7.70635 36.0336L6.28076 35.9396L7.22082 34.8538L6.86959 33.4549L8.18671 34.0239L9.39019 33.2513L9.26106 34.692L10.3612 35.616Z" fill="#F9F6EA"/>
<path d="M25.7792 32.3639C25.7676 32.4857 25.789 32.6084 25.8412 32.7189C25.8825 32.7763 25.991 32.8024 26.1666 32.792C26.709 32.7554 27.2565 32.7032 27.8143 32.6301C28.3722 32.5571 28.8938 32.4788 29.3639 32.3796C29.8339 32.2804 30.3349 32.1551 30.7636 32.0246C31.1421 31.9148 31.5102 31.7716 31.8638 31.5966C31.9537 31.5602 32.0472 31.534 32.1427 31.5183C32.3017 31.5118 32.4582 31.5596 32.5869 31.654C32.8297 31.821 32.9485 31.9776 32.9382 32.1238C32.9278 32.27 32.7677 32.4213 32.463 32.5779C31.4515 33.0998 30.374 33.4792 29.2606 33.7054C28.1107 33.9452 26.9484 34.1194 25.7792 34.2274C25.7069 34.2274 25.6088 34.2274 25.4848 34.2535H25.1956C25.0727 34.2468 24.9528 34.213 24.8443 34.1544C24.7132 34.0892 24.5901 34.0086 24.4776 33.9142C24.3629 33.8241 24.2664 33.7124 24.1935 33.5854C24.1316 33.4809 24.0961 33.3625 24.0902 33.2409V29.352C24.1015 29.1559 24.0858 28.9591 24.0437 28.7673C23.9923 28.6647 23.9088 28.5821 23.8061 28.5324C23.6975 28.4949 23.6011 28.4282 23.5272 28.3393C23.4853 28.2572 23.4657 28.1653 23.4704 28.0731V27.5041L24.5293 27.6085H27.272C27.3804 27.6085 27.5457 27.6085 27.7885 27.6085C28.0313 27.6085 28.2688 27.6085 28.5271 27.5667C28.7854 27.525 29.0436 27.5354 29.3019 27.5041C29.4965 27.4824 29.6896 27.4493 29.8804 27.4049C30.0191 27.372 30.1617 27.3597 30.3039 27.3684C30.4145 27.386 30.5211 27.4231 30.619 27.478L30.9341 27.6711C31.1011 27.7585 31.2487 27.8792 31.3679 28.0261C31.3868 28.0859 31.3924 28.1492 31.3844 28.2114C31.3764 28.2737 31.3549 28.3334 31.3215 28.3863C31.2662 28.5434 31.1608 28.6774 31.0219 28.7673C30.8555 28.8223 30.6799 28.8436 30.5054 28.83H25.7637C25.759 28.8803 25.759 28.931 25.7637 28.9814C25.766 29.0248 25.766 29.0684 25.7637 29.1119L25.7792 32.3639ZM28.7544 36.9523C28.6149 36.9523 28.4703 36.9523 28.3308 36.9523H27.9279H27.3804C27.2128 36.954 27.0464 36.9239 26.8898 36.8635C26.7693 36.8217 26.6622 36.7478 26.5798 36.6495C26.5431 36.6095 26.5167 36.5609 26.5032 36.508C26.4897 36.4552 26.4894 36.3998 26.5024 36.3468L26.6418 35.4959C27.2203 35.6026 27.8053 35.6689 28.3928 35.6943C28.9713 35.6943 29.493 35.7308 29.9424 35.7308H30.8928H31.8431H32.778L33.7181 35.6943L34.6788 35.6577C34.799 35.6599 34.9185 35.6756 35.0352 35.7047C35.1447 35.7231 35.2498 35.762 35.3451 35.8195C35.3975 35.8868 35.4441 35.9584 35.4846 36.0336C35.5367 36.1368 35.5616 36.2518 35.5569 36.3676V38.9463C35.5648 39.0529 35.5463 39.1598 35.503 39.2574C35.4597 39.3549 35.393 39.44 35.309 39.5049C35.0637 39.6427 34.7824 39.701 34.5032 39.6719L28.6304 39.7241V41.0447C28.6245 41.1653 28.6421 41.2859 28.6821 41.3997C28.7182 41.478 28.8422 41.5198 29.054 41.5198H31.9568C32.4059 41.5219 32.8547 41.4923 33.2997 41.431C33.6473 41.3933 33.9923 41.3341 34.3328 41.2535C34.4599 41.2234 34.5896 41.206 34.7201 41.2013C34.8454 41.2063 34.9691 41.2309 35.0869 41.2744L35.7067 41.5198C35.8722 41.5652 36.0257 41.6472 36.1561 41.7599C36.2331 41.894 36.2554 42.0532 36.218 42.2036C36.187 42.4489 36.1147 42.6003 36.0063 42.6473C35.8394 42.7006 35.6645 42.7236 35.4898 42.7151H28.775C28.5938 42.7141 28.4128 42.7036 28.2327 42.6838C28.0395 42.6605 27.8501 42.6113 27.6697 42.5377C27.496 42.4588 27.3449 42.3366 27.2307 42.1827C27.1025 41.9966 27.0406 41.7721 27.055 41.5459V40.2826C27.058 40.1254 27.0476 39.9683 27.024 39.8128C27.0213 39.7666 27.0065 39.7219 26.9811 39.6834C26.9557 39.6449 26.9206 39.6139 26.8794 39.5936C26.726 39.5314 26.5896 39.433 26.4817 39.3065C26.3872 39.1982 26.3341 39.0594 26.3319 38.915V38.393L27.618 38.4974H27.649L33.7026 38.4295C33.8317 38.4295 33.9092 38.4295 33.9402 38.3669C33.9754 38.2978 33.9898 38.2197 33.9815 38.1424V37.0984C33.9815 36.9888 33.9815 36.9262 33.9299 36.9105C33.8719 36.8992 33.8123 36.8992 33.7543 36.9105L28.7544 36.9523ZM34.0487 27.3945C34.0604 27.1933 34.0118 26.9932 33.9092 26.8203C33.7815 26.6548 33.6259 26.5134 33.4495 26.4027C33.4099 26.381 33.3773 26.3484 33.3553 26.3086C33.3334 26.2689 33.323 26.2237 33.3255 26.1782C33.3268 26.0764 33.3515 25.9763 33.3979 25.8859C33.4532 25.7926 33.5315 25.7152 33.6251 25.6615C33.6736 25.6354 33.7277 25.6218 33.7827 25.6218C33.8376 25.6218 33.8917 25.6354 33.9402 25.6615L35.1385 26.1835C35.3428 26.2451 35.5232 26.3691 35.655 26.5384C35.7151 26.6909 35.7416 26.8548 35.7325 27.0186V30.6257H35.8926C36.0655 30.6261 36.2381 30.6139 36.4091 30.5891C36.629 30.548 36.8463 30.494 37.06 30.4273L37.3544 30.3333C37.4229 30.3034 37.4966 30.2875 37.5713 30.2864C37.6411 30.2716 37.7133 30.2716 37.7831 30.2864C37.8693 30.3072 37.9525 30.3387 38.031 30.3803L38.9246 30.9336C38.9662 30.9553 39.0028 30.9856 39.0322 31.0224C39.0616 31.0593 39.083 31.1019 39.095 31.1477C39.1016 31.1926 39.098 31.2385 39.0846 31.2819C39.0712 31.3252 39.0483 31.365 39.0176 31.3982L38.6818 31.7897C38.6463 31.8364 38.601 31.8746 38.5493 31.9017C38.4975 31.9288 38.4405 31.944 38.3822 31.9463C38.2639 31.9589 38.1443 31.9464 38.031 31.9098C37.9225 31.8785 37.8296 31.8471 37.7418 31.8315C37.6266 31.8217 37.5108 31.8217 37.3957 31.8315H35.717V32.6667C35.7173 32.9058 35.668 33.1423 35.5724 33.3609C35.4735 33.5801 35.3524 33.7883 35.2108 33.9821C35.0789 34.1635 34.9375 34.3378 34.7873 34.5041C34.6833 34.6168 34.571 34.7215 34.4516 34.8173C34.4161 34.8493 34.3741 34.8729 34.3286 34.8864C34.283 34.9 34.235 34.9031 34.1881 34.8956C34.1691 34.8949 34.1505 34.8905 34.1332 34.8825C34.1159 34.8745 34.1003 34.8632 34.0874 34.8491C34.0744 34.8351 34.0643 34.8186 34.0577 34.8006C34.051 34.7826 34.048 34.7634 34.0487 34.7442V27.3945Z" fill="#C0DCB1"/>
<path d="M19.0646 11.484C18.5739 11.484 18.233 11.3691 18.1194 11.1081C18.0673 10.9757 18.0673 10.8282 18.1194 10.6957C18.264 10.0798 20.485 7.89262 21.611 7.39672L22.8093 6.87472C23.486 6.57196 27.0086 6.1909 27.5768 6.51454C27.645 6.53538 27.7082 6.57025 27.7624 6.61696C27.8166 6.66367 27.8607 6.72122 27.8919 6.78598C28.0571 7.16704 27.6904 7.7047 26.802 8.38329C25.7908 9.11282 24.7029 9.72728 23.5583 10.2155C21.8899 10.9254 20.1441 11.484 19.0646 11.484ZM26.6522 6.67114C25.4001 6.66575 24.1523 6.82009 22.9385 7.1305L21.735 7.6525C20.671 8.1223 18.5067 10.2886 18.4241 10.7375V10.7636C18.4015 10.8242 18.4015 10.891 18.4241 10.9515C18.5997 11.3587 20.5986 11.1551 23.4446 9.90753C24.567 9.42826 25.6339 8.8261 26.6264 8.11186C27.4683 7.4698 27.6904 7.06786 27.6181 6.89038C27.5873 6.8328 27.5353 6.78971 27.4735 6.77032C27.2087 6.68343 26.9297 6.64974 26.6522 6.67114Z" fill="white"/>
<path d="M22.2103 23.5212C21.6197 23.5435 21.0336 23.4085 20.5109 23.1297C19.545 22.5817 18.9614 21.4541 18.512 19.3714C17.479 14.5272 18.3415 11.2177 18.3519 11.1812L18.6515 11.2647C18.6515 11.296 17.8147 14.5377 18.8116 19.3087C19.23 21.2923 19.7826 22.3572 20.6607 22.8583C21.9675 23.6048 24.1059 23.0932 27.1378 22.0388C28.0274 21.7215 28.8909 21.334 29.7204 20.8799C32.5199 19.3557 34.3226 18.1133 34.6635 16.657C34.8907 15.6652 34.4879 14.5324 33.3154 12.8673C30.5365 8.87397 27.6543 7.36017 27.6234 7.34451L27.768 7.06786C27.7938 7.06786 30.7431 8.63385 33.584 12.6846C34.8133 14.4333 35.2316 15.66 34.9785 16.7039C34.617 18.2699 32.7575 19.5697 29.8805 21.1357C29.029 21.6003 28.1411 21.9932 27.2256 22.3102C25.1647 23.0567 23.4964 23.5212 22.2103 23.5212Z" fill="white"/>
<path d="M23.3774 24.0694C23.024 24.0788 22.6724 24.0149 22.3444 23.8814C22.2271 23.8355 22.1206 23.7654 22.0316 23.6755C21.9427 23.5856 21.8733 23.478 21.8279 23.3594L22.1275 23.2707L21.9777 23.3177L22.1223 23.2655C22.2094 23.4173 22.3493 23.5308 22.5148 23.5839C23.1088 23.8345 24.7152 23.9754 28.7854 22.0962C32.9175 20.3475 33.8834 19.0477 34.1055 18.4422C34.1822 18.2788 34.1933 18.0917 34.1365 17.9202L34.4051 17.7688C34.4555 17.8867 34.4816 18.0137 34.4816 18.1421C34.4816 18.2704 34.4555 18.3975 34.4051 18.5153C34.1313 19.3348 32.9536 20.6764 28.9042 22.399C26.115 23.6831 24.4156 24.0694 23.3774 24.0694Z" fill="white"/>
<path d="M21.9366 7.91872C22.7239 7.91872 23.3622 7.27369 23.3622 6.47801C23.3622 5.68232 22.7239 5.03729 21.9366 5.03729C21.1492 5.03729 20.511 5.68232 20.511 6.47801C20.511 7.27369 21.1492 7.91872 21.9366 7.91872Z" fill="white"/>
<path d="M21.9417 7.99702C21.5683 7.99991 21.2072 7.86276 20.9282 7.61211C20.6491 7.36146 20.472 7.01513 20.431 6.6401C20.39 6.26508 20.4881 5.88803 20.7064 5.58189C20.9246 5.27576 21.2474 5.0623 21.6124 4.98281C21.9773 4.90332 22.3585 4.96345 22.6821 5.15157C23.0057 5.33969 23.2488 5.64242 23.3643 6.00121C23.4798 6.36 23.4596 6.74933 23.3075 7.09389C23.1553 7.43845 22.8822 7.71375 22.5408 7.86652C22.3525 7.95248 22.1483 7.99696 21.9417 7.99702ZM21.9417 5.11559C21.7638 5.12023 21.5885 5.15921 21.4251 5.23043C21.2621 5.30126 21.1146 5.40417 20.9913 5.53317C20.868 5.66216 20.7714 5.81465 20.7069 5.98177C20.6425 6.14889 20.6117 6.32729 20.6161 6.50659C20.6206 6.68588 20.6603 6.86248 20.733 7.02611C20.8768 7.35572 21.1439 7.61435 21.476 7.74544C21.808 7.87652 22.1778 7.86938 22.5047 7.72558C22.7881 7.59988 23.0201 7.37943 23.1617 7.10126C23.3033 6.82309 23.3459 6.50415 23.2823 6.19801C23.2186 5.89187 23.0527 5.61717 22.8124 5.42007C22.572 5.22296 22.2718 5.11545 21.9623 5.11559H21.9417Z" fill="white"/>
<path d="M30.6657 9.66741C30.6343 9.66826 30.6035 9.65915 30.5776 9.64135C30.5516 9.62356 30.5319 9.59798 30.5211 9.56823C30.5135 9.54905 30.5098 9.52855 30.5102 9.50791C30.5105 9.48727 30.5149 9.46691 30.5231 9.44799C30.5312 9.42907 30.543 9.41197 30.5577 9.39767C30.5725 9.38337 30.5898 9.37215 30.6089 9.36466C30.6398 9.36466 31.3371 9.07756 31.2183 8.52424C31.2063 8.41738 31.1659 8.31581 31.1013 8.23033C31.0367 8.14485 30.9504 8.07866 30.8516 8.03878C30.8062 8.02205 30.7573 8.01711 30.7095 8.02441C30.6617 8.0317 30.6164 8.051 30.5779 8.08054C30.5531 8.10839 30.5362 8.14248 30.5289 8.17921C30.5216 8.21595 30.5243 8.25399 30.5365 8.28934C30.5461 8.33018 30.5393 8.3732 30.5175 8.40893C30.4957 8.44466 30.4607 8.47018 30.4203 8.47987C30.4003 8.48467 30.3796 8.48543 30.3593 8.48213C30.339 8.47882 30.3195 8.47151 30.302 8.4606C30.2666 8.43858 30.2414 8.40326 30.2318 8.36242C30.205 8.2713 30.2034 8.17452 30.2271 8.08253C30.2507 7.99054 30.2988 7.90683 30.3661 7.84042C30.4445 7.77247 30.5393 7.72656 30.6408 7.70732C30.7424 7.68808 30.8471 7.69618 30.9446 7.7308C31.0937 7.79041 31.2244 7.88903 31.3233 8.01653C31.4223 8.14404 31.4859 8.29584 31.5076 8.45638C31.6471 9.1141 31.0427 9.52647 30.7018 9.65697L30.6657 9.66741Z" fill="white"/>
<path d="M35.1232 14.7047C35.0234 14.7044 34.9267 14.6694 34.8495 14.6055C34.3329 14.1879 34.7358 12.5175 35.1335 11.4735C35.6501 10.1946 35.1336 7.99702 34.0592 6.67114C33.8086 6.30375 33.4636 6.0124 33.0613 5.82844C32.659 5.64448 32.2147 5.57488 31.7762 5.62714C31.1539 5.6892 30.5786 5.98904 30.1677 6.4654C29.7568 6.94176 29.5414 7.55869 29.5655 8.19016C29.5655 8.34675 29.5655 8.41461 29.4932 8.46681C29.4671 8.49163 29.4334 8.50657 29.3977 8.50909C29.362 8.51162 29.3265 8.50157 29.2973 8.48066C29.2681 8.45976 29.247 8.42927 29.2375 8.3944C29.228 8.35952 29.2307 8.3224 29.2453 8.28934C29.2453 8.26324 29.2453 8.21626 29.2453 8.1745C29.2232 7.47208 29.465 6.78724 29.922 6.25757C30.379 5.7279 31.0175 5.39265 31.709 5.31916C32.2019 5.2515 32.7037 5.32239 33.1593 5.52406C33.6149 5.72573 34.0066 6.05037 34.2916 6.46234C35.4331 7.8613 35.9445 10.2051 35.4125 11.5779C34.8805 12.9508 34.7772 14.1566 35.0302 14.3602C35.1335 14.4437 35.3505 14.3184 35.4693 14.2349C35.5035 14.2114 35.5456 14.2025 35.5863 14.2104C35.627 14.2182 35.6629 14.242 35.6862 14.2767C35.7095 14.3113 35.7182 14.3538 35.7105 14.3949C35.7027 14.436 35.6791 14.4724 35.6449 14.4959C35.4934 14.6128 35.3128 14.6851 35.1232 14.7047Z" fill="white"/>
<path d="M34.8185 15.5503L34.772 15.2371C35.6087 15.1171 35.7482 14.7151 35.7534 14.475C35.7585 14.2349 35.7172 13.9113 35.3246 13.8069C34.9321 13.7025 34.8649 13.8643 34.8598 13.8747L34.6067 13.6868C34.7044 13.5771 34.8333 13.5007 34.9757 13.468C35.1182 13.4353 35.2671 13.4479 35.4021 13.5041C35.613 13.5552 35.7974 13.6843 35.9188 13.866C36.0402 14.0476 36.0899 14.2686 36.0581 14.4855C36.0529 14.7517 35.9186 15.3885 34.8185 15.5503Z" fill="white"/>
<path d="M33.398 12.9508C33.3257 12.8986 33.1346 12.7576 33.7389 11.3378C34.2192 10.2051 34.3019 9.37509 34.0281 8.55033C33.5736 7.23489 32.9228 6.68158 32.024 6.8695C30.7844 7.12006 30.6346 7.96569 30.6295 8.00223L30.3247 7.95525C30.3247 7.91349 30.5003 6.85906 31.9672 6.56152C33.0416 6.34228 33.837 6.97912 34.338 8.45115C34.6428 9.35421 34.5498 10.252 34.0385 11.4579C33.5891 12.5019 33.6356 12.742 33.6407 12.7524C33.6297 12.73 33.6138 12.7104 33.5943 12.695L33.398 12.9508Z" fill="white"/>
<path d="M18.4294 21.3028C17.8712 21.2576 17.3449 21.0219 16.9367 20.6346C16.1464 20.0082 14.9791 18.1551 13.4295 14.9605C12.4275 12.9247 11.1517 13.0708 11.1 13.0813L10.5835 13.1491L12.6134 11.3639H12.6857C13.921 11.6479 15.0042 12.3939 15.7177 13.4519C16.3517 14.3608 17.2149 15.0818 18.2176 15.5399L18.0936 15.827C17.0273 15.3418 16.114 14.5687 15.4542 13.5928C14.803 12.6284 13.8197 11.9436 12.696 11.6719L11.4667 12.789C11.9833 12.8777 12.9388 13.2692 13.7033 14.8195C15.2528 17.9515 16.384 19.7994 17.1278 20.3893C18.0988 21.1566 18.5688 21.047 19.0389 20.8382L19.1628 21.1253C18.9337 21.2368 18.6836 21.2973 18.4294 21.3028Z" fill="white"/>
<path d="M11.8357 12.6308C12.5347 12.1073 12.9692 11.5026 12.8062 11.2803C12.6431 11.0579 11.9443 11.3021 11.2452 11.8256C10.5462 12.3491 10.1117 12.9537 10.2747 13.1761C10.4378 13.3985 11.1366 13.1543 11.8357 12.6308Z" fill="white"/>
<path d="M10.4905 13.3318C10.4384 13.336 10.3861 13.3277 10.3376 13.3078C10.2892 13.2879 10.2461 13.2568 10.2116 13.217C9.98952 12.9142 10.5577 12.2356 11.1982 11.7554C11.8387 11.2752 12.6444 10.9254 12.8665 11.2334C13.0886 11.5362 12.5256 12.2148 11.8851 12.695C11.4858 13.0308 11.0038 13.2509 10.4905 13.3318ZM12.5928 11.2699C12.1122 11.3507 11.6623 11.5618 11.2911 11.8807C10.5474 12.4392 10.2323 12.9821 10.3408 13.123C10.4492 13.264 11.0484 13.123 11.7922 12.5645C12.5359 12.006 12.8252 11.4631 12.7426 11.3221C12.7227 11.3031 12.6991 11.2886 12.6733 11.2796C12.6474 11.2706 12.62 11.2673 12.5928 11.2699Z" fill="white"/>
<path d="M25.9189 15.1849C25.8207 15.1849 23.5429 14.7256 22.7423 13.4362C21.9417 12.1469 21.4407 12.006 21.4355 12.006C21.4173 11.999 21.4022 11.9857 21.3927 11.9685C21.3833 11.9513 21.3801 11.9313 21.3838 11.912C21.3893 11.8941 21.4002 11.8784 21.4151 11.8671C21.4299 11.8558 21.4479 11.8496 21.4665 11.8494C22.6315 11.9929 23.7617 12.3465 24.8032 12.8934C25.1933 13.1131 25.5126 13.4414 25.7232 13.8394C25.9339 14.2374 26.0269 14.6881 25.9912 15.138C25.9908 15.1486 25.9878 15.159 25.9824 15.1681C25.9769 15.1772 25.9693 15.1848 25.9602 15.1902C25.9462 15.1938 25.9315 15.1919 25.9189 15.1849ZM21.7867 12.0529C22.197 12.4202 22.5458 12.8521 22.8198 13.3318C23.5016 14.428 25.4023 14.8978 25.8104 14.9918C25.8196 14.5994 25.7237 14.2117 25.5328 13.8699C25.3418 13.528 25.063 13.2447 24.7257 13.05C23.8168 12.5538 22.8292 12.2217 21.8074 12.0686L21.7867 12.0529Z" fill="white"/>
<path d="M24.6998 18.343C23.4343 18.343 21.7659 18.1395 20.8207 17.2103C20.3182 16.6448 19.6846 16.2143 18.9768 15.9575C18.9586 15.9516 18.943 15.9395 18.9327 15.9234C18.9223 15.9072 18.9178 15.8879 18.9199 15.8688C18.9223 15.8507 18.9308 15.8341 18.944 15.8217C18.9572 15.8093 18.9743 15.802 18.9923 15.8009C19.4999 15.7648 19.9798 15.5528 20.3507 15.2006C20.955 14.5794 22.5097 14.6786 22.5769 14.6786C26.1512 15.3572 26.4404 18.0977 26.4404 18.129C26.4421 18.1482 26.4366 18.1673 26.4252 18.1827C26.4138 18.1981 26.3971 18.2087 26.3784 18.2125C25.8226 18.2954 25.2616 18.339 24.6998 18.343ZM19.3177 15.9157C19.9175 16.2106 20.4612 16.61 20.924 17.0955C22.3806 18.5257 25.7276 18.1395 26.2751 18.082C26.2028 17.6488 25.676 15.4407 22.5562 14.8509C22.5562 14.8509 21.0067 14.7412 20.4592 15.3102C20.1452 15.6202 19.7484 15.8306 19.3177 15.9157Z" fill="white"/>
<path d="M27.4425 18.2177C27.4284 18.2156 27.4152 18.2097 27.4042 18.2004C27.3933 18.1912 27.3851 18.1792 27.3805 18.1655C27.334 18.0037 26.2132 14.214 27.6129 12.8516C28.5884 11.9823 29.767 11.3786 31.0374 11.0977C31.0524 11.0966 31.0673 11.0994 31.0809 11.1058C31.0944 11.1122 31.1062 11.122 31.1149 11.1342C31.1227 11.1467 31.1269 11.1612 31.1269 11.176C31.1269 11.1908 31.1227 11.2052 31.1149 11.2177C31.1149 11.2177 29.7771 13.2535 29.4931 14.6629C29.209 16.0723 27.5871 18.1081 27.5148 18.1916C27.5068 18.2029 27.4956 18.2115 27.4827 18.2162C27.4698 18.2208 27.4557 18.2214 27.4425 18.2177ZM30.867 11.2908C29.6925 11.5753 28.6052 12.1472 27.7007 12.956C26.5231 14.1096 27.2824 17.252 27.4735 17.9672C27.8299 17.513 29.0798 15.8374 29.3226 14.6264C29.6662 13.4415 30.187 12.3167 30.867 11.2908Z" fill="white"/>
<path d="M26.0119 14.9553C26.3982 15.5538 26.5979 16.2557 26.5852 16.9702C26.4967 16.3041 26.2186 15.6785 25.7846 15.1693C25.7707 15.1542 25.7599 15.1365 25.7527 15.1172C25.7456 15.0979 25.7423 15.0773 25.743 15.0567C25.7437 15.0361 25.7485 15.0159 25.7569 14.9971C25.7654 14.9784 25.7774 14.9615 25.7924 14.9474C25.8073 14.9334 25.8248 14.9224 25.8439 14.9152C25.863 14.908 25.8833 14.9047 25.9037 14.9054C25.9241 14.9061 25.9441 14.9109 25.9627 14.9195C25.9813 14.928 25.998 14.9402 26.0119 14.9553Z" fill="white"/>
<path d="M19.4314 15.7435C21.9718 15.5763 24.4757 16.4235 26.4044 18.1029C26.4663 18.1499 26.4044 18.2491 26.332 18.2021C24.4003 16.6622 21.9313 15.6547 19.4469 15.8635C19.4376 15.8663 19.4279 15.8669 19.4184 15.8652C19.4088 15.8635 19.3999 15.8596 19.3921 15.8537C19.3844 15.8479 19.3781 15.8403 19.3738 15.8316C19.3694 15.8229 19.3672 15.8133 19.3672 15.8035C19.3672 15.7938 19.3694 15.7841 19.3738 15.7754C19.3781 15.7667 19.3844 15.7591 19.3921 15.7533C19.3999 15.7475 19.4088 15.7435 19.4184 15.7418C19.4279 15.7401 19.4376 15.7407 19.4469 15.7435H19.4314Z" fill="white"/>
<path d="M21.6937 11.912C22.4989 12.291 23.2758 12.7289 24.018 13.2222C24.7839 13.6934 25.4536 14.3082 25.9911 15.0335C26.0048 15.0557 26.0092 15.0824 26.0034 15.1079C25.9976 15.1333 25.982 15.1554 25.9601 15.1693C25.9382 15.1831 25.9117 15.1876 25.8865 15.1817C25.8613 15.1758 25.8395 15.1601 25.8258 15.1379C25.302 14.4276 24.6501 13.8236 23.9043 13.3579C23.1777 12.8533 22.4165 12.4015 21.6265 12.006C21.5594 11.9799 21.6265 11.8702 21.673 11.9016L21.6937 11.912Z" fill="white"/>
<path d="M31.0427 11.1864C28.9095 12.6167 27.9849 15.6861 27.4271 18.1029C27.4242 18.1109 27.4189 18.1178 27.4119 18.1227C27.405 18.1275 27.3968 18.1301 27.3883 18.1301C27.3799 18.1301 27.3717 18.1275 27.3648 18.1227C27.3578 18.1178 27.3525 18.1109 27.3496 18.1029C27.6112 16.0878 28.354 14.1673 29.5138 12.5071C29.9138 11.9638 30.418 11.5076 30.9962 11.1655C30.9962 11.1655 31.0375 11.1655 30.9962 11.1969L31.0427 11.1864Z" fill="white"/>
<path d="M21.8022 16.0201C21.7878 16.0194 21.7739 16.0146 21.762 16.0063C21.7501 15.998 21.7408 15.9865 21.7351 15.9732C21.5233 15.4825 21.2857 15.4198 21.2857 15.4198C21.2651 15.4157 21.2471 15.4035 21.2354 15.3858C21.2238 15.3682 21.2196 15.3466 21.2237 15.3259C21.2278 15.3051 21.2399 15.2868 21.2574 15.2751C21.2748 15.2634 21.2961 15.2591 21.3167 15.2632C21.3477 15.2632 21.6369 15.3468 21.8745 15.9105C21.8787 15.9197 21.8809 15.9297 21.8811 15.9398C21.8812 15.9499 21.8793 15.96 21.8754 15.9693C21.8715 15.9786 21.8658 15.987 21.8585 15.994C21.8512 16.0009 21.8426 16.0063 21.8332 16.0097L21.8022 16.0201Z" fill="white"/>
<path d="M21.6937 17.2521C21.6748 17.2522 21.6565 17.2454 21.6423 17.2329C21.628 17.2204 21.6187 17.2031 21.6162 17.1842C21.6146 17.1636 21.6206 17.1432 21.633 17.1268C21.6454 17.1104 21.6633 17.0993 21.6834 17.0955C22.199 16.899 22.6737 16.6069 23.0831 16.2342C23.0982 16.2209 23.1174 16.2137 23.1374 16.2137C23.1573 16.2137 23.1766 16.2209 23.1916 16.2342C23.2058 16.2488 23.2138 16.2685 23.2138 16.289C23.2138 16.3095 23.2058 16.3291 23.1916 16.3438C22.1069 17.1685 21.7557 17.2312 21.7195 17.2364L21.6937 17.2521Z" fill="white"/>
<path d="M24.2195 16.824C24.199 16.824 24.1793 16.8158 24.1647 16.8011C24.1502 16.7864 24.142 16.7665 24.142 16.7457C24.0844 16.2276 23.8718 15.7396 23.5325 15.3468C23.5248 15.3399 23.5187 15.3315 23.5145 15.322C23.5102 15.3126 23.5081 15.3023 23.5081 15.2919C23.5081 15.2816 23.5102 15.2713 23.5145 15.2619C23.5187 15.2524 23.5248 15.244 23.5325 15.2371C23.547 15.2228 23.5665 15.2148 23.5868 15.2148C23.6071 15.2148 23.6265 15.2228 23.641 15.2371C24.0045 15.6579 24.2268 16.1842 24.2763 16.7405C24.2764 16.7618 24.2684 16.7823 24.254 16.7978C24.2396 16.8133 24.2199 16.8227 24.1988 16.824H24.2195Z" fill="white"/>
<path d="M23.6977 17.8732C23.5641 17.8733 23.4308 17.8593 23.3 17.8315H23.2432C23.2337 17.8338 23.2238 17.8341 23.2142 17.8324C23.2045 17.8307 23.1953 17.8271 23.1871 17.8217C23.1789 17.8164 23.1719 17.8094 23.1664 17.8012C23.161 17.793 23.1572 17.7838 23.1554 17.7741C23.1507 17.754 23.1541 17.7329 23.1647 17.7153C23.1753 17.6977 23.1924 17.685 23.2122 17.6801C23.2512 17.6699 23.292 17.6699 23.331 17.6801C23.9834 17.7839 24.6505 17.6367 25.2008 17.2677C25.2181 17.262 25.2368 17.2626 25.2537 17.2694C25.2705 17.2762 25.2845 17.2888 25.2931 17.305C25.3017 17.3212 25.3045 17.3399 25.3008 17.3579C25.2971 17.3759 25.2873 17.392 25.2731 17.4034C24.7945 17.6892 24.2532 17.8507 23.6977 17.8732Z" fill="white"/>
<path d="M23.8993 13.5302C23.5907 13.5168 23.2844 13.4714 22.9851 13.3945C22.967 13.388 22.952 13.375 22.9429 13.358C22.9338 13.341 22.9313 13.3212 22.9358 13.3024C22.9402 13.2836 22.9515 13.2671 22.9672 13.2562C22.983 13.2452 23.0022 13.2406 23.0212 13.2431C23.3681 13.354 23.7342 13.3896 24.0956 13.3475C24.1115 13.3368 24.1308 13.3325 24.1497 13.3353C24.1687 13.3382 24.1859 13.348 24.1981 13.3629C24.2103 13.3778 24.2166 13.3968 24.2157 13.4161C24.2149 13.4354 24.2071 13.4537 24.1937 13.4676C24.1039 13.5175 24.0014 13.5393 23.8993 13.5302Z" fill="white"/>
<path d="M24.834 14.0052C24.8144 14.0026 24.7965 13.9925 24.784 13.977C24.7715 13.9614 24.7654 13.9417 24.7669 13.9217C24.7621 13.7107 24.7273 13.5015 24.6636 13.3005C24.6604 13.2909 24.6593 13.2808 24.6602 13.2707C24.6612 13.2607 24.6642 13.2509 24.669 13.2421C24.6739 13.2333 24.6805 13.2256 24.6884 13.2194C24.6964 13.2133 24.7055 13.2089 24.7152 13.2066C24.725 13.2033 24.7354 13.2022 24.7457 13.203C24.756 13.2039 24.766 13.2069 24.7752 13.2118C24.7843 13.2166 24.7924 13.2233 24.799 13.2314C24.8055 13.2394 24.8104 13.2488 24.8134 13.2588C24.8833 13.4781 24.9199 13.7069 24.9218 13.9374C24.9181 13.9576 24.907 13.9758 24.8908 13.9883C24.8746 14.0008 24.8544 14.0069 24.834 14.0052Z" fill="white"/>
<path d="M29.0489 13.4206C29.0329 13.4213 29.017 13.4165 29.0039 13.407C28.9908 13.3976 28.9812 13.384 28.9766 13.3684C28.8377 13.0046 28.7812 12.614 28.8113 12.2252C28.8258 12.2109 28.8453 12.2028 28.8656 12.2028C28.8858 12.2028 28.9053 12.2109 28.9198 12.2252C28.9307 12.2384 28.9367 12.255 28.9367 12.2722C28.9367 12.2894 28.9307 12.306 28.9198 12.3192C28.9296 12.6657 28.9905 13.0087 29.1006 13.3371C29.1038 13.347 29.105 13.3575 29.1041 13.3679C29.1032 13.3783 29.1003 13.3884 29.0954 13.3976C29.0906 13.4069 29.084 13.4151 29.076 13.4217C29.0681 13.4283 29.0588 13.4333 29.0489 13.4362V13.4206Z" fill="white"/>
<path d="M28.3051 14.9761C28.2883 14.9765 28.2719 14.971 28.2587 14.9605C28.2455 14.9501 28.2364 14.9353 28.2328 14.9187C28.2281 14.8986 28.2314 14.8775 28.2421 14.8599C28.2527 14.8423 28.2698 14.8297 28.2896 14.8248C28.5619 14.7599 28.8207 14.6467 29.054 14.4907C29.0685 14.4763 29.088 14.4683 29.1083 14.4683C29.1286 14.4683 29.148 14.4763 29.1625 14.4907C29.1767 14.5053 29.1847 14.525 29.1847 14.5455C29.1847 14.566 29.1767 14.5857 29.1625 14.6003C28.9104 14.7691 28.6306 14.8911 28.3361 14.9605L28.3051 14.9761Z" fill="white"/>
<path d="M27.8918 16.2394C27.872 16.2372 27.8537 16.228 27.8402 16.2133C27.4476 15.8166 27.2772 14.6003 27.272 14.5481C27.2704 14.5275 27.2763 14.5071 27.2887 14.4907C27.3011 14.4743 27.3191 14.4632 27.3391 14.4594C27.3595 14.4577 27.3797 14.4637 27.3959 14.4763C27.4121 14.4888 27.4232 14.5069 27.4269 14.5272C27.4269 14.5272 27.5974 15.7435 27.9435 16.0932C27.9512 16.1001 27.9573 16.1085 27.9615 16.118C27.9658 16.1274 27.9679 16.1377 27.9679 16.148C27.9679 16.1584 27.9658 16.1686 27.9615 16.1781C27.9573 16.1875 27.9512 16.196 27.9435 16.2028C27.9317 16.2214 27.9131 16.2346 27.8918 16.2394Z" fill="white"/>
<path d="M27.5355 17.9463C27.4547 18.7513 27.5922 19.5633 27.9332 20.2953C27.8382 20.115 27.7554 19.9284 27.6853 19.7368C27.4465 19.163 27.3405 18.5417 27.3754 17.9202C27.3771 17.9099 27.3808 17.9001 27.3862 17.8912C27.3917 17.8824 27.3988 17.8747 27.4072 17.8687C27.4156 17.8626 27.4251 17.8583 27.4352 17.8559C27.4452 17.8536 27.4556 17.8532 27.4658 17.855C27.476 17.8567 27.4857 17.8604 27.4945 17.8659C27.5032 17.8714 27.5108 17.8786 27.5168 17.8871C27.5228 17.8956 27.5271 17.9052 27.5294 17.9154C27.5317 17.9255 27.5321 17.936 27.5304 17.9463H27.5355Z" fill="white"/>
<path d="M26.3062 17.9046C26.763 18.3245 27.0911 18.8679 27.2515 19.4706C27.2928 19.6115 27.3754 19.8934 27.4116 20.0395L27.2979 19.7681C27.1171 19.3181 26.866 18.9004 26.5542 18.531C26.4383 18.3923 26.3004 18.2741 26.1461 18.1812C26.1265 18.1718 26.1091 18.1584 26.095 18.1417C26.0808 18.1251 26.0703 18.1056 26.0641 18.0846C26.0579 18.0636 26.0561 18.0415 26.0589 18.0198C26.0616 17.9981 26.0689 17.9771 26.0802 17.9584C26.0914 17.9397 26.1065 17.9235 26.1243 17.9111C26.1421 17.8986 26.1623 17.89 26.1836 17.8859C26.205 17.8818 26.2269 17.8823 26.248 17.8873C26.2691 17.8923 26.289 17.9017 26.3062 17.915V17.9046Z" fill="white"/>
<path d="M24.4106 52.8628C25.1751 52.4939 25.8982 52.1059 26.58 51.6987C27.2149 51.3202 27.8255 50.9018 28.4085 50.4459C28.9068 50.0107 29.3681 49.534 29.7876 49.0209C30.1824 48.53 30.5187 47.9938 30.7896 47.4236L32.0396 47.8255C32.0811 47.8328 32.1188 47.8545 32.1462 47.8869C32.1735 47.9194 32.1888 47.9604 32.1894 48.003C32.1879 48.0453 32.1722 48.0859 32.145 48.1181C32.1178 48.1503 32.0807 48.1723 32.0396 48.1805L31.6264 48.3475C32.0866 48.8013 32.5823 49.2168 33.1088 49.5899C33.5871 49.9376 34.0875 50.2532 34.6067 50.5347C35.1376 50.8214 35.6882 51.0691 36.2544 51.2759C36.8329 51.4899 37.4579 51.6987 38.1293 51.8919L38.0828 52.2938C37.9496 52.2924 37.8165 52.3029 37.6851 52.3251C37.5914 52.3415 37.4997 52.3677 37.4114 52.4034C37.3085 52.4386 37.2209 52.5087 37.1634 52.6018C37.1246 52.6614 37.0998 52.7293 37.0911 52.8002C36.5062 52.568 35.9383 52.2941 35.3918 51.9806C34.8851 51.6843 34.3938 51.3619 33.9197 51.0149C33.4193 50.6808 32.9445 50.3092 32.4993 49.9031C32.0468 49.487 31.619 49.0443 31.2183 48.5772C30.8013 49.1166 30.34 49.6195 29.8392 50.0805C29.3557 50.5256 28.8375 50.9306 28.2897 51.2916C28.0271 51.4829 27.7528 51.6572 27.4684 51.8136C27.1843 51.9806 26.8899 52.1372 26.58 52.2938C26.2701 52.4504 25.9447 52.6018 25.6193 52.748L24.6276 53.2021L24.4106 52.8628ZM29.4415 45.2364V46.1134H32.8867V45.6644C32.8867 45.5426 32.8867 45.3686 32.8867 45.1424C32.8867 44.9336 32.8609 44.6987 32.8402 44.443L34.0643 44.7353C34.1144 44.7471 34.1599 44.7738 34.1948 44.812C34.2298 44.8501 34.2527 44.8979 34.2606 44.9493C34.2659 44.9696 34.267 44.9907 34.2638 45.0114C34.2607 45.0322 34.2532 45.052 34.2421 45.0696C34.2309 45.0873 34.2162 45.1024 34.199 45.1141C34.1817 45.1257 34.1622 45.1336 34.1418 45.1372L33.6976 45.226V46.0925H36.0478L36.6727 45.4139C36.7502 45.3199 36.8225 45.2729 36.8742 45.2729C36.9684 45.2902 37.056 45.3336 37.1273 45.3982L37.8762 46.2282C37.9044 46.2539 37.9243 46.2875 37.9335 46.3247C37.9427 46.3618 37.9407 46.4009 37.9279 46.437C37.9194 46.4729 37.8988 46.5045 37.8695 46.5265C37.8402 46.5485 37.8042 46.5593 37.7678 46.5571H33.6356V47.742C33.6375 47.7823 33.6295 47.8224 33.6124 47.8588C33.5953 47.8952 33.5696 47.9268 33.5375 47.9508C33.4512 48.0005 33.3526 48.0241 33.2534 48.0187C33.1378 48.0231 33.0227 47.9999 32.9177 47.9508C32.8764 47.9341 32.8411 47.9053 32.8162 47.868C32.7914 47.8308 32.7781 47.7869 32.7782 47.742C32.7782 47.5854 32.8144 47.4027 32.8247 47.1887C32.835 46.9747 32.8247 46.7606 32.8247 46.5571H29.4415V47.956C29.4412 48.0028 29.4273 48.0485 29.4016 48.0875C29.3759 48.1264 29.3395 48.1569 29.2969 48.1753C29.1935 48.2244 29.0805 48.2494 28.9663 48.2483C28.8602 48.2507 28.7553 48.2256 28.6616 48.1753C28.6238 48.1533 28.5927 48.1212 28.5717 48.0825C28.5508 48.0438 28.5408 48.0001 28.5428 47.956C28.5428 47.8255 28.5428 47.6428 28.5738 47.434C28.6048 47.2252 28.5738 47.0112 28.5738 46.8494V46.5727H26.3011C25.986 46.5727 25.6813 46.5727 25.3817 46.5727C25.0821 46.5727 24.8652 46.5727 24.7774 46.5727L24.5501 45.9359C24.8632 46.0057 25.1808 46.0528 25.5005 46.0768C25.8001 46.0768 26.0687 46.1081 26.3011 46.1081H28.5634V45.6592C28.5634 45.5392 28.5634 45.4295 28.5634 45.3356C28.5686 45.2434 28.5686 45.1511 28.5634 45.0589C28.5634 44.9754 28.5634 44.8867 28.5634 44.7875C28.5634 44.6883 28.5634 44.5787 28.5634 44.443L29.7824 44.7509C29.927 44.7823 29.9994 44.8449 30.0097 44.9441C30.0177 44.9855 30.0099 45.0284 29.9878 45.0642C29.9658 45.1001 29.9312 45.1261 29.8909 45.1372L29.4415 45.2364ZM25.0615 58.1193C25.8007 57.6479 26.4716 57.0752 27.0552 56.4176C27.6143 55.7832 28.0506 55.0484 28.3413 54.2513L29.6223 54.7733C29.7463 54.8151 29.8082 54.8882 29.8082 54.9926C29.8082 55.097 29.7514 55.1492 29.6378 55.1596L28.9973 55.1909C28.7029 55.6033 28.424 55.953 28.1657 56.2349C27.9133 56.5188 27.646 56.7889 27.3651 57.044C27.0814 57.2863 26.7848 57.5129 26.4767 57.7226C26.1513 57.9366 25.7846 58.1663 25.3662 58.4116L25.0615 58.1193ZM30.7431 52.8002V51.8919C30.7431 51.7492 30.7431 51.5752 30.7431 51.3699C30.7431 51.1611 30.7121 50.9105 30.6812 50.6234L31.9311 50.9627C32.0551 50.994 32.1171 51.0567 32.1222 51.1506C32.1251 51.1703 32.124 51.1903 32.119 51.2094C32.114 51.2286 32.1052 51.2466 32.0932 51.2622C32.0811 51.2778 32.066 51.2908 32.0488 51.3003C32.0316 51.3099 32.0126 51.3158 31.9931 51.3177L31.5799 51.4273V52.8106H33.3515L33.9146 52.1633C33.9728 52.0933 34.053 52.0454 34.1418 52.0276C34.2313 52.0411 34.3134 52.0853 34.3743 52.1529L35.1025 52.9046C35.1291 52.928 35.1478 52.9591 35.1561 52.9937C35.1645 53.0283 35.162 53.0646 35.149 53.0977C35.1439 53.137 35.1237 53.1727 35.0928 53.1971C35.0619 53.2215 35.0227 53.2326 34.9837 53.2282H31.5489V58.5943C31.5516 58.6404 31.5408 58.6863 31.5178 58.7262C31.4948 58.7662 31.4607 58.7984 31.4198 58.8188C31.3184 58.8678 31.2067 58.8911 31.0944 58.8867C30.9838 58.8906 30.8738 58.8674 30.7741 58.8188C30.7312 58.7999 30.695 58.7684 30.6701 58.7283C30.6452 58.6883 30.6329 58.6416 30.6347 58.5943C30.6553 58.4691 30.676 58.2951 30.6967 58.0723C30.7173 57.8496 30.7276 57.6408 30.7276 57.4459V53.2439H29.0335C28.7287 53.2439 28.424 53.2439 28.1244 53.2439C27.9238 53.2492 27.7238 53.2666 27.5252 53.2961L27.3238 52.5861C27.6208 52.6622 27.9229 52.7163 28.2277 52.748C28.4952 52.7801 28.7641 52.7975 29.0335 52.8002H30.7431ZM33.3515 54.5123C33.8371 54.8186 34.3381 55.1474 34.8546 55.4989C35.2559 55.762 35.6359 56.057 35.9909 56.3811C36.1803 56.5822 36.3531 56.7987 36.5075 57.0283C36.6314 57.1876 36.7067 57.3799 36.7244 57.5817C36.7311 57.7206 36.689 57.8574 36.6056 57.9679C36.5364 58.0568 36.437 58.1163 36.3267 58.135C36.2132 58.1418 36.1006 58.1106 36.0064 58.0462C35.8806 57.9566 35.7893 57.8256 35.7482 57.6756L34.7151 56.2401C34.6118 56.1357 34.493 56.0261 34.3536 55.9008C34.2141 55.7755 34.0798 55.6555 33.9352 55.5302C33.7906 55.4049 33.6305 55.2849 33.4755 55.17C33.3206 55.0552 33.1811 54.9351 33.052 54.8203L33.3515 54.5123Z" fill="#C0DCB1"/>
<path d="M11.0742 40.9351C8.89126 40.9379 6.7769 40.1644 5.1016 38.75C3.4263 37.3356 2.29688 35.3705 1.91123 33.1991C1.81585 33.7507 1.76747 34.3095 1.7666 34.8695C1.7666 37.3615 2.74614 39.7514 4.48972 41.5134C6.2333 43.2755 8.5981 44.2655 11.0639 44.2655C13.5297 44.2655 15.8945 43.2755 17.6381 41.5134C19.3817 39.7514 20.3612 37.3615 20.3612 34.8695C20.3612 34.3093 20.3111 33.7502 20.2114 33.1991C19.8265 35.3661 18.7009 37.3278 17.0309 38.7416C15.361 40.1555 13.2528 40.9318 11.0742 40.9351Z" fill="#FFD85C"/>
<g opacity="0.6">
<path d="M19.5812 50.0649H15.103C14.8997 50.0419 14.712 49.944 14.5756 49.7899C14.4393 49.6358 14.3639 49.4364 14.3639 49.2297C14.3639 49.023 14.4393 48.8235 14.5756 48.6694C14.712 48.5154 14.8997 48.4175 15.103 48.3945H15.0255H16.353C16.468 48.4036 16.5837 48.3886 16.6928 48.3504C16.8018 48.3122 16.9019 48.2516 16.9866 48.1724C17.0714 48.0933 17.139 47.9972 17.1853 47.8903C17.2315 47.7835 17.2554 47.6681 17.2554 47.5514C17.2554 47.4348 17.2315 47.3194 17.1853 47.2125C17.139 47.1057 17.0714 47.0096 16.9866 46.9305C16.9019 46.8513 16.8018 46.7907 16.6928 46.7525C16.5837 46.7143 16.468 46.6993 16.353 46.7084H6.71476C6.59969 46.6993 6.484 46.7143 6.37495 46.7525C6.2659 46.7907 6.16585 46.8513 6.08109 46.9305C5.99633 47.0096 5.9287 47.1057 5.88244 47.2125C5.83619 47.3194 5.81231 47.4348 5.81231 47.5514C5.81231 47.6681 5.83619 47.7835 5.88244 47.8903C5.9287 47.9972 5.99633 48.0933 6.08109 48.1724C6.16585 48.2516 6.2659 48.3122 6.37495 48.3504C6.484 48.3886 6.59969 48.4036 6.71476 48.3945H11.0948H11.0277C11.2469 48.3945 11.4571 48.4825 11.612 48.6391C11.767 48.7957 11.8541 49.0082 11.8541 49.2297C11.8541 49.4512 11.767 49.6636 11.612 49.8202C11.4571 49.9769 11.2469 50.0649 11.0277 50.0649H3.50202C3.29212 50.0816 3.09617 50.1776 2.95325 50.3339C2.81033 50.4901 2.73096 50.6951 2.73096 50.9079C2.73096 51.1207 2.81033 51.3256 2.95325 51.4819C3.09617 51.6382 3.29212 51.7342 3.50202 51.7509H6.41001H6.34286C6.56205 51.7509 6.77225 51.8389 6.92724 51.9955C7.08222 52.1522 7.16929 52.3646 7.16929 52.5861C7.16929 52.8076 7.08222 53.0201 6.92724 53.1767C6.77225 53.3333 6.56205 53.4213 6.34286 53.4213H6.41001H5.4028C5.28774 53.4122 5.17204 53.4272 5.06299 53.4654C4.95394 53.5036 4.85389 53.5642 4.76914 53.6434C4.68438 53.7225 4.61675 53.8186 4.57049 53.9255C4.52423 54.0323 4.50036 54.1477 4.50036 54.2643C4.50036 54.381 4.52423 54.4964 4.57049 54.6032C4.61675 54.7101 4.68438 54.8062 4.76914 54.8853C4.85389 54.9645 4.95394 55.0251 5.06299 55.0633C5.17204 55.1015 5.28774 55.1165 5.4028 55.1074H17.0967C17.2118 55.1165 17.3275 55.1015 17.4365 55.0633C17.5456 55.0251 17.6456 54.9645 17.7304 54.8853C17.8152 54.8062 17.8828 54.7101 17.9291 54.6032C17.9753 54.4964 17.9992 54.381 17.9992 54.2643C17.9992 54.1477 17.9753 54.0323 17.9291 53.9255C17.8828 53.8186 17.8152 53.7225 17.7304 53.6434C17.6456 53.5642 17.5456 53.5036 17.4365 53.4654C17.3275 53.4272 17.2118 53.4122 17.0967 53.4213H9.86551H9.94298C9.73973 53.3983 9.55198 53.3004 9.41565 53.1463C9.27931 52.9923 9.20393 52.7928 9.20393 52.5861C9.20393 52.3794 9.27931 52.18 9.41565 52.0259C9.55198 51.8718 9.73973 51.7739 9.94298 51.7509H9.86551H19.5812C19.7911 51.7342 19.987 51.6382 20.13 51.4819C20.2729 51.3256 20.3522 51.1207 20.3522 50.9079C20.3522 50.6951 20.2729 50.4901 20.13 50.3339C19.987 50.1776 19.7911 50.0816 19.5812 50.0649Z" fill="white"/>
</g>
</g>
<defs>
<clipPath id="clip0_56_245">
<rect width="43" height="63" fill="white"/>
</clipPath>
</defs>
</svg>
