<svg width="315" height="522" viewBox="0 0 315 522" fill="none" xmlns="http://www.w3.org/2000/svg">
<mask id="path-1-inside-1_263_5" fill="white">
<path d="M313.842 145H315V522H0V145H1.18555L90.001 70H227.001L313.842 145Z"/>
</mask>
<path d="M313.842 145H315V522H0V145H1.18555L90.001 70H227.001L313.842 145Z" fill="#D6D4FF"/>
<path d="M313.842 145L310.574 148.784L311.982 150H313.842V145ZM315 145H320V140H315V145ZM315 522V527H320V522H315ZM0 522H-5V527H0V522ZM0 145V140H-5V145H0ZM1.18555 145V150H3.01427L4.41146 148.82L1.18555 145ZM90.001 70V65H88.1723L86.7751 66.1799L90.001 70ZM227.001 70L230.269 66.2159L228.861 65H227.001V70ZM313.842 145V150H315V145V140H313.842V145ZM315 145H310V522H315H320V145H315ZM315 522V517H0V522V527H315V522ZM0 522H5V145H0H-5V522H0ZM0 145V150H1.18555V145V140H0V145ZM1.18555 145L4.41146 148.82L93.2269 73.8201L90.001 70L86.7751 66.1799L-2.04036 141.18L1.18555 145ZM90.001 70V75H227.001V70V65H90.001V70ZM227.001 70L223.733 73.7841L310.574 148.784L313.842 145L317.11 141.216L230.269 66.2159L227.001 70Z" fill="#625FA1" mask="url(#path-1-inside-1_263_5)"/>
<rect x="135" y="97" width="46" height="46" rx="10" fill="#625FA0"/>
<path d="M161.035 120C159.987 74.1011 181.913 -13.044 278 5.56704" stroke="#625FA0" stroke-width="5"/>
<path d="M37 214C37 197.431 50.4315 184 67 184H248C264.569 184 278 197.431 278 214V471C278 487.569 264.569 501 248 501H67C50.4315 501 37 487.569 37 471V214Z" fill="#EAE9F6"/>
</svg>
