<svg width="191" height="65" viewBox="0 0 191 65" fill="none" xmlns="http://www.w3.org/2000/svg">
<g clip-path="url(#clip0_274_20)">
<g filter="url(#filter0_d_274_20)">
<path d="M83.938 24.0009C83.8955 24.434 83.9719 24.8705 84.1589 25.2622C84.3062 25.4744 84.6937 25.5569 85.3215 25.5098C87.2281 25.384 89.1658 25.1954 91.1344 24.9439C93.103 24.6925 94.9632 24.3978 96.7148 24.0598C98.4935 23.6826 100.203 23.2582 101.667 22.7985C103.007 22.4073 104.31 21.8984 105.562 21.2778C105.876 21.1346 106.209 21.0393 106.55 20.9949C107.107 20.9717 107.655 21.1376 108.108 21.4664C108.98 22.0558 109.399 22.6453 109.364 23.1404C109.329 23.6355 108.759 24.2131 107.678 24.7553C104.099 26.6123 100.285 27.9609 96.3428 28.7633C92.2701 29.6309 88.1517 30.2607 84.0078 30.6494C83.752 30.6494 83.4149 30.7202 82.9731 30.7437C82.5313 30.7673 82.1942 30.7437 81.95 30.7437C81.5145 30.7315 81.0881 30.6144 80.7061 30.4019C80.2415 30.1639 79.8014 29.8796 79.3924 29.5531C78.9894 29.227 78.6503 28.8271 78.3925 28.3743C78.1739 28.0188 78.0461 27.6137 78.0205 27.1955V13.2619C78.0653 12.5637 78.0223 11.8626 77.8926 11.1754C77.7157 10.8066 77.4148 10.5139 77.044 10.3502C76.6577 10.215 76.3158 9.97429 76.0558 9.65468C75.9118 9.36282 75.8476 9.03718 75.8698 8.71163V6.68406L79.5784 7.07307H89.2975H91.1112C91.9366 7.07307 92.8085 7.00234 93.727 6.90804C94.6454 6.81373 95.5871 6.80195 96.459 6.69585C97.1515 6.62136 97.8388 6.50325 98.5168 6.34221C98.9951 6.21846 99.4882 6.16291 99.9816 6.17717C100.391 6.22573 100.787 6.35807 101.144 6.56618L102.307 7.26168C102.899 7.5641 103.419 7.99467 103.83 8.52302C103.895 8.73199 103.915 8.95272 103.889 9.17032C103.863 9.38791 103.791 9.5973 103.679 9.78435C103.471 10.3387 103.097 10.8129 102.609 11.14C102.047 11.3264 101.455 11.4024 100.865 11.364H83.8799C83.8691 11.5406 83.8691 11.7178 83.8799 11.8944C83.8799 12.0948 83.8799 12.2481 83.8799 12.3778L83.938 24.0009ZM94.471 40.2922C93.9672 40.2922 93.4673 40.3157 92.9713 40.3629C92.4714 40.3629 91.9947 40.3629 91.5413 40.3629C91.0879 40.3629 90.4369 40.3629 89.6114 40.3629C89.016 40.3645 88.4251 40.2566 87.8676 40.0446C87.4396 39.8982 87.0609 39.6327 86.7747 39.2784C86.645 39.1365 86.5517 38.9644 86.503 38.7774C86.4543 38.5903 86.4518 38.3939 86.4957 38.2056L86.9956 35.1171C89.0429 35.4936 91.1133 35.726 93.1922 35.8126C95.2499 35.8952 97.0868 35.9305 98.7028 35.9305H102.074C103.237 35.9305 104.318 35.9305 105.434 35.9305L108.736 35.8362L112.072 35.7066L115.467 35.5769C115.898 35.5867 116.327 35.642 116.746 35.7419C117.127 35.8093 117.493 35.945 117.827 36.1427C118.016 36.3823 118.184 36.6387 118.327 36.9089C118.507 37.2743 118.595 37.6794 118.583 38.0878V47.2472C118.604 47.6239 118.537 48.0005 118.385 48.3451C118.233 48.6897 118.002 48.9923 117.711 49.2276C116.846 49.749 115.842 49.9839 114.839 49.8995L94.0292 50.0881V54.8034C94.0044 55.2133 94.0517 55.6244 94.1687 56.0176C94.2966 56.3123 94.7384 56.4655 95.4824 56.4655H105.795C107.389 56.4671 108.981 56.3608 110.561 56.1472C112.119 55.9351 113.316 55.7229 114.142 55.5225C114.591 55.4073 115.051 55.3441 115.514 55.3339C115.962 55.3473 116.405 55.4308 116.827 55.5814L119.001 56.4655C119.596 56.654 120.14 56.9764 120.594 57.4086C120.847 57.8931 120.925 58.4516 120.815 58.9882C120.687 59.8723 120.431 60.4028 120.059 60.5678C119.438 60.7757 118.783 60.8636 118.129 60.8271H94.4013C93.7561 60.8208 93.1117 60.7776 92.4714 60.6975C91.7891 60.6209 91.1203 60.4503 90.4834 60.1906C89.8727 59.9069 89.3384 59.4783 88.9255 58.941C88.4915 58.2635 88.2912 57.4593 88.3558 56.6541V52.1039C88.3693 51.5443 88.3382 50.9845 88.2628 50.43C88.2537 50.2628 88.2003 50.1012 88.1082 49.9622C88.0162 49.8232 87.8889 49.712 87.7397 49.6402C87.2019 49.4187 86.7208 49.0761 86.333 48.6382C86.0004 48.2527 85.8149 47.7593 85.8098 47.2472V45.4789L90.3555 45.8562H90.4834L111.91 45.5968C112.359 45.5968 112.638 45.5261 112.747 45.3846C112.875 45.1427 112.931 44.8685 112.91 44.5948V40.799C112.91 40.4218 112.84 40.1978 112.723 40.1389C112.524 40.0598 112.309 40.0276 112.096 40.0446L94.471 40.2922ZM113.223 6.30684C113.281 5.59233 113.123 4.87701 112.77 4.2557C112.323 3.66727 111.775 3.16432 111.154 2.77039C111.013 2.6958 110.897 2.5816 110.818 2.44151C110.74 2.30142 110.703 2.14137 110.712 1.98058C110.697 1.62261 110.769 1.26633 110.921 0.943222C111.116 0.612848 111.392 0.340371 111.724 0.153415C111.903 0.0593417 112.103 0.0102539 112.305 0.0102539C112.507 0.0102539 112.707 0.0593417 112.886 0.153415L117.118 2.05131C117.82 2.2863 118.438 2.72485 118.897 3.31265C119.113 3.85455 119.208 4.43827 119.176 5.02193V17.8003H119.734C120.318 17.8076 120.901 17.7642 121.478 17.6706C122.264 17.5333 123.041 17.3443 123.803 17.1048C124.221 16.9751 124.57 16.869 124.838 16.763C125.06 16.6331 125.305 16.5452 125.558 16.5036C125.804 16.4567 126.057 16.4567 126.302 16.5036C126.605 16.5847 126.897 16.6993 127.174 16.8455L130.348 18.8612C130.494 18.9375 130.622 19.0441 130.724 19.1742C130.826 19.3042 130.9 19.4547 130.941 19.6157C130.971 19.775 130.962 19.9394 130.913 20.0939C130.864 20.2484 130.778 20.388 130.662 20.4998L129.499 21.8908C129.376 22.0588 129.216 22.1967 129.033 22.2945C128.85 22.3924 128.648 22.4478 128.442 22.4566C128.023 22.5058 127.598 22.4616 127.198 22.327C126.826 22.2091 126.488 22.1148 126.175 22.0441C125.771 21.9758 125.363 21.9442 124.954 21.9498H119.141V24.9204C119.14 25.7711 118.958 26.6116 118.606 27.3841C118.263 28.1689 117.834 28.9123 117.327 29.6003C116.873 30.2316 116.375 30.8303 115.839 31.3921C115.483 31.7939 115.094 32.1646 114.677 32.5002C114.555 32.6184 114.407 32.7056 114.245 32.7548C114.083 32.804 113.913 32.8137 113.747 32.7831C113.409 32.7831 113.247 32.5473 113.247 32.2526L113.223 6.30684Z" fill="#414170"/>
</g>
<g filter="url(#filter1_d_274_20)">
<path d="M130.848 38.5707C134.189 36.9439 137.351 35.2386 140.335 33.4546C143.16 31.7885 145.878 29.9419 148.473 27.926C150.667 26.0209 152.69 23.9223 154.518 21.6546C156.258 19.4867 157.73 17.1115 158.901 14.5817L164.377 16.35C164.557 16.382 164.721 16.4775 164.839 16.6198C164.957 16.7622 165.022 16.9421 165.022 17.128C165.022 17.3139 164.957 17.4938 164.839 17.6361C164.721 17.7784 164.557 17.874 164.377 17.906L162.575 18.6487C164.564 20.6525 166.71 22.4896 168.992 24.1419C171.089 25.6643 173.279 27.0502 175.549 28.2914C177.883 29.5355 180.294 30.6224 182.769 31.5449C185.303 32.488 188.047 33.3957 190.988 34.2444L190.779 36.0126C190.199 36.008 189.62 36.0514 189.047 36.1423C188.649 36.2168 188.26 36.3314 187.884 36.4842C187.406 36.6305 186.994 36.9437 186.722 37.3683C186.547 37.6316 186.443 37.9362 186.419 38.2524C183.88 37.2325 181.413 36.0351 179.037 34.6688C176.811 33.3805 174.656 31.9676 172.585 30.4368C170.394 28.9706 168.314 27.3392 166.365 25.5565C164.39 23.7239 162.52 21.7796 160.761 19.7332C158.91 22.0856 156.885 24.2924 154.704 26.3346C152.606 28.2785 150.363 30.0559 147.996 31.651C146.833 32.5006 145.626 33.2876 144.381 34.0087C143.137 34.7277 141.846 35.4232 140.509 36.1069C139.172 36.7907 137.719 37.4508 136.301 38.0992L131.918 40.0796L130.848 38.5707ZM152.763 5.02153V8.88805H167.876V6.91943C167.876 6.37717 167.876 5.6463 167.807 4.71504C167.737 3.78377 167.69 2.76999 167.609 1.63832L172.957 2.92323C173.18 2.96868 173.383 3.08429 173.537 3.2536C173.692 3.42292 173.79 3.63732 173.817 3.86629C173.841 3.95566 173.846 4.04921 173.831 4.14064C173.817 4.23208 173.783 4.31926 173.732 4.39634C173.681 4.47341 173.615 4.53858 173.537 4.58745C173.46 4.63632 173.373 4.66777 173.282 4.67967L171.352 5.09226V8.88805H181.641L184.583 5.76418C184.931 5.36339 185.234 5.16299 185.478 5.16299C185.909 5.22415 186.314 5.41273 186.64 5.70524L189.919 9.35958C190.045 9.47094 190.134 9.61848 190.176 9.78266C190.218 9.94685 190.209 10.1199 190.151 10.2791C190.111 10.4325 190.02 10.5671 189.892 10.6595C189.765 10.752 189.61 10.7967 189.454 10.7859H171.352V15.9963C171.363 16.1752 171.328 16.354 171.251 16.5151C171.174 16.6762 171.056 16.8143 170.911 16.9158C170.539 17.1406 170.11 17.2474 169.678 17.2223C169.169 17.2356 168.664 17.1308 168.202 16.9158C168.024 16.8403 167.872 16.7123 167.766 16.5484C167.66 16.3845 167.606 16.1922 167.609 15.9963C167.69 15.3244 167.76 14.511 167.807 13.5562C167.853 12.6013 167.876 11.6818 167.876 10.7859H152.763V16.9512C152.76 17.1533 152.699 17.3502 152.588 17.5177C152.476 17.6853 152.319 17.8161 152.135 17.8942C151.691 18.13 151.195 18.2476 150.693 18.2361C150.224 18.2568 149.76 18.138 149.356 17.8942C149.192 17.7996 149.056 17.6623 148.962 17.4965C148.868 17.3307 148.82 17.1424 148.822 16.9512C148.868 16.3618 148.915 15.5759 148.961 14.5935C148.961 13.5915 149.031 12.7428 149.031 12.0119V10.8331H139.137C137.75 10.8331 136.401 10.8567 135.092 10.9038C133.778 10.9038 132.894 10.9863 132.452 11.0335L131.453 8.18076C132.827 8.48951 134.222 8.6944 135.626 8.79375C136.94 8.88805 138.114 8.9352 139.114 8.9352H149.008V6.91943C149.008 6.37717 148.938 5.90564 148.938 5.49306C148.936 5.0991 148.913 4.70554 148.868 4.31424C148.868 3.9488 148.868 3.5598 148.868 3.13542C148.868 2.71105 148.868 2.20415 148.775 1.61475L154.123 2.97039C154.739 3.10006 155.076 3.38297 155.123 3.81914C155.155 4.00286 155.118 4.1922 155.019 4.34948C154.92 4.50675 154.766 4.62043 154.588 4.66788L152.763 5.02153ZM133.592 61.6755C136.822 59.5962 139.756 57.0776 142.311 54.19C144.761 51.3978 146.677 48.1679 147.961 44.6652L153.565 47.0228C154.111 47.2114 154.367 47.5297 154.367 47.9776C154.367 48.4256 154.123 48.6731 153.635 48.7203L150.833 48.8618C149.539 50.6693 148.322 52.2175 147.182 53.5063C146.087 54.7515 144.923 55.9322 143.695 57.0428C142.448 58.1143 141.14 59.1102 139.777 60.0252C138.382 60.9761 136.77 61.9938 134.94 63.0783L133.592 61.6755ZM158.518 38.2996V34.2916C158.518 33.6629 158.494 32.877 158.448 31.9339C158.448 31.0145 158.32 29.9182 158.18 28.645L163.668 30.1421C164.203 30.2718 164.47 30.5429 164.493 30.9555C164.506 31.0417 164.502 31.1296 164.481 31.214C164.46 31.2985 164.422 31.3778 164.37 31.4471C164.318 31.5164 164.252 31.5744 164.178 31.6175C164.103 31.6607 164.02 31.6881 163.935 31.6982L162.121 32.1697V38.276H169.876L172.352 35.4232C172.601 35.103 172.957 34.8852 173.352 34.8103C173.75 34.8667 174.116 35.0627 174.387 35.3643L177.595 38.6886C177.708 38.7938 177.787 38.9309 177.823 39.0822C177.858 39.2335 177.847 39.392 177.793 39.5373C177.77 39.7116 177.68 39.8698 177.543 39.9778C177.406 40.0858 177.233 40.135 177.061 40.1149H162.121V63.6559C162.135 63.8597 162.087 64.0628 161.986 64.2393C161.884 64.4157 161.733 64.5574 161.552 64.6461C161.107 64.8649 160.616 64.9701 160.122 64.9526C159.636 64.961 159.155 64.8561 158.715 64.6461C158.528 64.5614 158.371 64.4217 158.263 64.2452C158.155 64.0686 158.102 63.8634 158.111 63.6559C158.204 63.1137 158.297 62.3356 158.378 61.2983C158.459 60.2609 158.518 59.365 158.518 58.5516V40.0796H151.135C149.798 40.0796 148.473 40.0796 147.159 40.1739C146.275 40.2007 145.394 40.2834 144.52 40.4214L143.648 37.2976C144.943 37.6319 146.26 37.8722 147.589 38.0166C148.747 38.154 149.911 38.2327 151.077 38.2524L158.518 38.2996ZM169.946 45.8204C172.085 47.176 174.282 48.6142 176.526 50.1585C178.285 51.3045 179.949 52.5937 181.502 54.0132C182.305 54.9084 183.044 55.8619 183.711 56.8659C184.251 57.5698 184.578 58.4175 184.652 59.3061C184.687 59.9121 184.506 60.5106 184.141 60.9918C183.835 61.388 183.397 61.6565 182.908 61.7462C182.408 61.7659 181.915 61.6212 181.502 61.3336C180.944 60.9399 180.535 60.3666 180.339 59.7069L175.793 53.412C175.34 52.9523 174.817 52.4572 174.224 51.9149L172.387 50.2881C171.713 49.7459 171.05 49.2154 170.376 48.6967C169.702 48.178 169.12 47.6712 168.574 47.1525L169.946 45.8204Z" fill="#414170"/>
</g>
<path d="M34.3774 36.0601L28.797 29.3644L20.2056 30.2131L24.7629 22.7748L21.2984 14.747L29.6922 16.8453L36.1445 11.022L36.7723 19.757L44.2361 24.1894L36.2259 27.4901L34.3774 36.0601Z" fill="#FFE75B"/>
<path d="M32.2152 49.1919C24.6633 49.192 17.3513 46.5019 11.5566 41.5914C5.76179 36.681 1.85256 29.8624 0.511687 22.3267C-0.261887 26.7817 -0.114463 31.3511 0.944619 35.7453C2.0037 40.1395 3.95135 44.2628 6.66418 47.854C9.377 51.4451 12.7959 54.4257 16.7041 56.607C20.6124 58.7884 24.9249 60.1228 29.3684 60.5259C33.8119 60.9289 38.2895 60.3917 42.5176 58.9484C46.7456 57.5051 50.6319 55.1871 53.9303 52.1412C57.2287 49.0953 59.8671 45.388 61.6786 41.2541C63.49 37.1203 64.435 32.65 64.4535 28.1264C64.4489 26.1818 64.2778 24.2413 63.942 22.3267C62.5983 29.8654 58.685 36.6858 52.8859 41.5963C47.0868 46.5068 39.7705 49.1952 32.2152 49.1919Z" fill="#FFD000"/>
</g>
<defs>
<filter id="filter0_d_274_20" x="72.8655" y="-2.98975" width="75.093" height="80.8247" filterUnits="userSpaceOnUse" color-interpolation-filters="sRGB">
<feFlood flood-opacity="0" result="BackgroundImageFix"/>
<feColorMatrix in="SourceAlpha" type="matrix" values="0 0 0 0 0 0 0 0 0 0 0 0 0 0 0 0 0 0 127 0" result="hardAlpha"/>
<feOffset dx="7" dy="7"/>
<feGaussianBlur stdDeviation="5"/>
<feColorMatrix type="matrix" values="0 0 0 0 0 0 0 0 0 0 0 0 0 0 0 0 0 0 0.25 0"/>
<feBlend mode="normal" in2="BackgroundImageFix" result="effect1_dropShadow_274_20"/>
<feBlend mode="normal" in="SourceGraphic" in2="effect1_dropShadow_274_20" result="shape"/>
</filter>
<filter id="filter1_d_274_20" x="127.848" y="-1.38525" width="80.1401" height="83.3398" filterUnits="userSpaceOnUse" color-interpolation-filters="sRGB">
<feFlood flood-opacity="0" result="BackgroundImageFix"/>
<feColorMatrix in="SourceAlpha" type="matrix" values="0 0 0 0 0 0 0 0 0 0 0 0 0 0 0 0 0 0 127 0" result="hardAlpha"/>
<feOffset dx="7" dy="7"/>
<feGaussianBlur stdDeviation="5"/>
<feColorMatrix type="matrix" values="0 0 0 0 0 0 0 0 0 0 0 0 0 0 0 0 0 0 0.25 0"/>
<feBlend mode="normal" in2="BackgroundImageFix" result="effect1_dropShadow_274_20"/>
<feBlend mode="normal" in="SourceGraphic" in2="effect1_dropShadow_274_20" result="shape"/>
</filter>
<clipPath id="clip0_274_20">
<rect width="191" height="65" fill="white"/>
</clipPath>
</defs>
</svg>
