<svg width="199" height="288" viewBox="0 0 199 288" fill="none" xmlns="http://www.w3.org/2000/svg">
<g clip-path="url(#clip0_146_4)">
<path d="M199 288H0L0 99.3408C0 86.2983 2.57333 73.3835 7.57309 61.3339C12.5728 49.2842 19.9011 38.3356 29.1394 29.1131C38.3777 19.8907 49.3452 12.5751 61.4156 7.58392C73.4861 2.59277 86.4231 0.0238647 99.488 0.0238647C112.555 0.0207214 125.495 2.58731 137.568 7.57706C149.641 12.5668 160.611 19.882 169.852 29.1047C179.093 38.3274 186.423 49.2771 191.425 61.3283C196.426 73.3796 199 86.2963 199 99.3408V288Z" fill="#2C285B"/>
<path d="M41.4016 125.733L33.9436 116.904L22.4458 118.049L28.5413 108.242L23.9039 97.6704L35.1388 100.439L43.7681 92.7786L44.6047 104.28L54.5726 110.103L43.8637 114.446L41.4016 125.733Z" fill="#FFEB9A"/>
<path d="M70.3013 145.993L61.935 142.723L54.5008 147.758L55.0267 138.81L47.9512 133.321L56.6283 131.054L59.688 122.631L64.5166 130.172L73.5044 130.458L67.7914 137.402L70.3013 145.993Z" fill="#FFF8D5"/>
<path d="M47.9512 162.816L41.4972 164.271L39.059 170.404L35.6646 164.725L29.0671 164.295L33.4176 159.332L31.7922 152.937L37.8877 155.538L43.4573 152.006L42.8597 158.592L47.9512 162.816Z" fill="#F9F6EA"/>
<path d="M119.304 147.949C119.251 148.506 119.35 149.067 119.591 149.572C119.783 149.835 120.284 149.954 121.097 149.906C123.607 149.739 126.141 149.5 128.723 149.166C131.304 148.832 133.718 148.474 135.894 148.021C138.069 147.568 140.388 146.995 142.372 146.398C144.123 145.896 145.827 145.242 147.463 144.442C147.879 144.275 148.312 144.155 148.754 144.084C149.49 144.054 150.214 144.272 150.81 144.704C151.933 145.468 152.483 146.184 152.435 146.852C152.387 147.52 151.646 148.212 150.236 148.928C145.555 151.314 140.568 153.048 135.416 154.082C130.094 155.178 124.715 155.975 119.304 156.468C118.97 156.468 118.516 156.468 117.942 156.588H116.603C116.035 156.557 115.48 156.402 114.978 156.134C114.371 155.836 113.801 155.468 113.281 155.037C112.75 154.624 112.303 154.114 111.966 153.533C111.679 153.055 111.515 152.515 111.488 151.958V134.181C111.54 133.284 111.468 132.385 111.273 131.508C111.035 131.039 110.648 130.661 110.173 130.434C109.67 130.263 109.224 129.957 108.882 129.551C108.688 129.176 108.598 128.756 108.619 128.334V125.733L113.52 126.21H126.213C126.715 126.21 127.48 126.21 128.603 126.21C129.727 126.21 130.826 126.21 132.021 126.019C133.216 125.829 134.412 125.876 135.607 125.733C136.507 125.634 137.401 125.482 138.284 125.28C138.926 125.129 139.586 125.073 140.244 125.113C140.756 125.193 141.249 125.363 141.702 125.614L143.161 126.497C143.933 126.896 144.616 127.448 145.168 128.119C145.256 128.393 145.282 128.682 145.245 128.967C145.207 129.251 145.108 129.524 144.953 129.766C144.697 130.484 144.21 131.097 143.567 131.508C142.797 131.759 141.984 131.856 141.177 131.794H119.233C119.211 132.024 119.211 132.256 119.233 132.486C119.243 132.685 119.243 132.884 119.233 133.083L119.304 147.949ZM133.073 168.925C132.428 168.925 131.758 168.925 131.113 168.925H129.248H126.715C125.939 168.933 125.169 168.795 124.444 168.519C123.886 168.328 123.391 167.99 123.01 167.541C122.839 167.358 122.718 167.136 122.655 166.894C122.592 166.652 122.591 166.399 122.651 166.157L123.296 162.267C125.973 162.755 128.681 163.058 131.4 163.174C134.077 163.174 136.491 163.341 138.571 163.341H142.969H147.368H151.694L156.045 163.174L160.491 163.007C161.047 163.017 161.6 163.089 162.14 163.222C162.647 163.306 163.133 163.484 163.574 163.747C163.817 164.054 164.033 164.381 164.22 164.725C164.461 165.197 164.576 165.723 164.555 166.252V178.04C164.591 178.528 164.506 179.016 164.305 179.462C164.105 179.908 163.796 180.297 163.407 180.594C162.272 181.224 160.97 181.49 159.678 181.357L132.499 181.596V187.633C132.472 188.184 132.553 188.736 132.738 189.256C132.906 189.614 133.479 189.805 134.46 189.805H147.893C149.972 189.815 152.049 189.679 154.109 189.399C155.717 189.227 157.314 188.956 158.889 188.588C159.478 188.45 160.078 188.37 160.682 188.349C161.262 188.371 161.834 188.484 162.379 188.683L165.248 189.805C166.014 190.012 166.724 190.387 167.327 190.902C167.684 191.515 167.787 192.243 167.614 192.931C167.471 194.052 167.136 194.744 166.634 194.959C165.862 195.203 165.053 195.308 164.244 195.269H133.169C132.33 195.264 131.492 195.217 130.659 195.126C129.764 195.019 128.888 194.795 128.053 194.458C127.249 194.097 126.55 193.539 126.021 192.835C125.428 191.985 125.142 190.958 125.209 189.924V184.149C125.222 183.431 125.174 182.712 125.065 182.002C125.053 181.79 124.984 181.586 124.867 181.41C124.749 181.234 124.587 181.092 124.396 180.999C123.686 180.715 123.055 180.265 122.555 179.687C122.118 179.192 121.872 178.557 121.862 177.897V175.511L127.814 175.988H127.958L155.973 175.678C156.571 175.678 156.929 175.678 157.073 175.392C157.236 175.076 157.302 174.719 157.264 174.365V169.593C157.264 169.092 157.264 168.805 157.025 168.734C156.756 168.682 156.481 168.682 156.212 168.734L133.073 168.925ZM157.575 125.232C157.629 124.312 157.404 123.397 156.929 122.607C156.338 121.851 155.618 121.204 154.802 120.698C154.619 120.599 154.467 120.45 154.366 120.268C154.264 120.086 154.216 119.88 154.228 119.672C154.234 119.207 154.348 118.749 154.563 118.336C154.819 117.909 155.181 117.555 155.614 117.31C155.839 117.19 156.089 117.128 156.344 117.128C156.598 117.128 156.848 117.19 157.073 117.31L162.618 119.696C163.564 119.978 164.399 120.544 165.009 121.318C165.287 122.015 165.409 122.765 165.367 123.514V140.003H166.108C166.908 140.005 167.707 139.949 168.499 139.836C169.516 139.648 170.522 139.401 171.511 139.096L172.873 138.667C173.19 138.53 173.531 138.457 173.877 138.452C174.2 138.384 174.534 138.384 174.857 138.452C175.256 138.547 175.641 138.691 176.004 138.881L180.14 141.411C180.332 141.51 180.502 141.648 180.638 141.817C180.774 141.985 180.873 142.18 180.929 142.389C180.959 142.595 180.942 142.805 180.88 143.003C180.818 143.201 180.712 143.383 180.57 143.535L179.016 145.324C178.852 145.538 178.643 145.713 178.403 145.836C178.163 145.96 177.899 146.03 177.63 146.04C177.082 146.098 176.529 146.041 176.004 145.873C175.503 145.73 175.072 145.587 174.666 145.515C174.133 145.471 173.597 145.471 173.064 145.515H165.296V149.333C165.297 150.426 165.069 151.507 164.626 152.507C164.169 153.509 163.608 154.461 162.953 155.347C162.342 156.176 161.688 156.973 160.993 157.733C160.511 158.248 159.992 158.727 159.439 159.165C159.275 159.311 159.081 159.419 158.87 159.481C158.659 159.543 158.437 159.557 158.22 159.523C158.132 159.52 158.046 159.499 157.966 159.463C157.886 159.426 157.814 159.375 157.754 159.31C157.694 159.246 157.647 159.171 157.616 159.088C157.586 159.006 157.571 158.919 157.575 158.831V125.232Z" fill="#C0DCB1"/>
<path d="M88.2294 52.4981C85.9585 52.4981 84.3809 51.9731 83.855 50.78C83.6141 50.1746 83.6141 49.5002 83.855 48.8948C84.5243 46.079 94.803 36.0805 100.014 33.8135L105.56 31.4273C108.691 30.0432 124.994 28.3012 127.623 29.7807C127.939 29.876 128.231 30.0354 128.482 30.2489C128.733 30.4625 128.937 30.7256 129.081 31.0216C129.846 32.7636 128.149 35.2215 124.037 38.3236C119.358 41.6586 114.323 44.4675 109.026 46.6995C101.305 49.9448 93.2253 52.4981 88.2294 52.4981ZM123.344 30.4966C117.55 30.472 111.775 31.1775 106.157 32.5965L100.588 34.9828C95.6635 37.1305 85.6478 47.0335 85.2653 49.0857V49.205C85.1607 49.4819 85.1607 49.7873 85.2653 50.0641C86.078 51.9254 95.3288 50.9948 108.5 45.2915C113.694 43.1006 118.632 40.3479 123.225 37.0828C127.121 34.1476 128.149 32.3102 127.814 31.4989C127.672 31.2356 127.431 31.0386 127.145 30.95C125.92 30.5528 124.629 30.3988 123.344 30.4966Z" fill="white"/>
<path d="M102.787 107.526C100.053 107.627 97.3414 107.01 94.9223 105.736C90.4523 103.23 87.7511 98.0761 85.6715 88.5548C80.8907 66.4102 84.8827 51.2812 84.9305 51.1141L86.3169 51.4959C86.3169 51.6391 82.4445 66.4579 87.0579 88.2685C88.9941 97.3363 91.5519 102.204 95.6155 104.495C101.663 107.908 111.559 105.569 125.591 100.749C129.708 99.2982 133.704 97.5269 137.543 95.4512C150.499 88.4832 158.841 82.8039 160.419 76.1462C161.471 71.6123 159.606 66.434 154.18 58.8218C141.32 40.5668 127.981 33.6466 127.838 33.575L128.507 32.3102C128.627 32.3102 142.276 39.4691 155.423 57.9866C161.112 65.9806 163.048 71.5884 161.877 76.3609C160.204 83.5198 151.598 89.4616 138.284 96.6205C134.343 98.7445 130.234 100.54 125.997 101.99C116.46 105.402 108.739 107.526 102.787 107.526Z" fill="white"/>
<path d="M108.189 110.031C106.553 110.075 104.926 109.782 103.408 109.172C102.865 108.962 102.372 108.642 101.961 108.231C101.549 107.82 101.228 107.328 101.018 106.786L102.404 106.38L101.711 106.595L102.38 106.356C102.783 107.051 103.431 107.57 104.197 107.812C106.946 108.958 114.38 109.602 133.216 101.011C152.34 93.0172 156.81 87.0753 157.837 84.3072C158.192 83.5602 158.244 82.705 157.981 81.921L159.224 81.2289C159.457 81.7676 159.578 82.3482 159.578 82.9351C159.578 83.522 159.457 84.1027 159.224 84.6413C157.957 88.3878 152.507 94.5205 133.766 102.395C120.858 108.265 112.994 110.031 108.189 110.031Z" fill="white"/>
<path d="M101.52 36.1998C105.164 36.1998 108.117 33.2511 108.117 29.6137C108.117 25.9763 105.164 23.0276 101.52 23.0276C97.8762 23.0276 94.9224 25.9763 94.9224 29.6137C94.9224 33.2511 97.8762 36.1998 101.52 36.1998Z" fill="white"/>
<path d="M101.544 36.5578C99.8162 36.571 98.1449 35.9441 96.8535 34.7982C95.5621 33.6524 94.7423 32.0691 94.5527 30.3548C94.3631 28.6404 94.8171 26.9167 95.8271 25.5172C96.837 24.1177 98.3309 23.1419 100.02 22.7785C101.709 22.4152 103.473 22.69 104.971 23.55C106.468 24.41 107.593 25.7939 108.128 27.4341C108.662 29.0743 108.569 30.8541 107.865 32.4292C107.161 34.0043 105.897 35.2628 104.317 35.9612C103.445 36.3542 102.5 36.5575 101.544 36.5578ZM101.544 23.3856C100.721 23.4067 99.9095 23.5849 99.1535 23.9105C98.399 24.2343 97.7165 24.7048 97.1459 25.2945C96.5753 25.8841 96.1279 26.5813 95.8298 27.3452C95.5317 28.1092 95.3888 28.9248 95.4095 29.7444C95.4302 30.564 95.6141 31.3713 95.9504 32.1193C96.6159 33.6261 97.8522 34.8085 99.3887 35.4077C100.925 36.0069 102.637 35.9743 104.149 35.3169C105.461 34.7423 106.535 33.7345 107.19 32.4629C107.845 31.1913 108.042 29.7332 107.748 28.3337C107.454 26.9342 106.686 25.6785 105.573 24.7774C104.461 23.8764 103.072 23.3849 101.64 23.3856H101.544Z" fill="white"/>
<path d="M141.918 44.1939C141.772 44.1978 141.63 44.1561 141.51 44.0748C141.39 43.9934 141.298 43.8765 141.248 43.7405C141.213 43.6528 141.196 43.5591 141.198 43.4647C141.2 43.3704 141.22 43.2773 141.258 43.1908C141.295 43.1044 141.35 43.0262 141.418 42.9608C141.486 42.8954 141.567 42.8441 141.655 42.8099C141.798 42.8099 145.025 41.4974 144.475 38.968C144.42 38.4795 144.232 38.0152 143.934 37.6244C143.635 37.2336 143.235 36.931 142.778 36.7487C142.568 36.6723 142.342 36.6497 142.12 36.683C141.899 36.7164 141.69 36.8046 141.511 36.9396C141.396 37.067 141.318 37.2228 141.285 37.3907C141.251 37.5587 141.263 37.7325 141.32 37.8941C141.364 38.0808 141.333 38.2775 141.232 38.4408C141.131 38.6042 140.969 38.7208 140.782 38.7651C140.689 38.7871 140.593 38.7906 140.5 38.7755C140.406 38.7604 140.315 38.7269 140.234 38.6771C140.071 38.5764 139.954 38.4149 139.91 38.2282C139.786 37.8117 139.778 37.3693 139.888 36.9487C139.997 36.5282 140.22 36.1455 140.531 35.8419C140.894 35.5313 141.333 35.3214 141.803 35.2335C142.272 35.1455 142.757 35.1825 143.208 35.3408C143.898 35.6133 144.503 36.0641 144.961 36.647C145.419 37.2299 145.713 37.9239 145.814 38.6577C146.459 41.6645 143.663 43.5496 142.085 44.1462L141.918 44.1939Z" fill="white"/>
<path d="M162.547 67.2215C162.085 67.2204 161.637 67.0602 161.28 66.7681C158.889 64.8591 160.754 57.223 162.594 52.4504C164.985 46.6041 162.594 36.5578 157.622 30.4967C156.463 28.8172 154.866 27.4853 153.004 26.6443C151.142 25.8034 149.086 25.4852 147.057 25.7241C144.177 26.0078 141.514 27.3785 139.613 29.5561C137.711 31.7338 136.714 34.554 136.826 37.4407C136.826 38.1566 136.826 38.4668 136.491 38.7055C136.371 38.8189 136.215 38.8872 136.049 38.8987C135.884 38.9103 135.72 38.8644 135.585 38.7688C135.45 38.6732 135.352 38.5339 135.308 38.3744C135.264 38.215 135.277 38.0453 135.344 37.8941C135.344 37.7748 135.344 37.5601 135.344 37.3692C135.242 34.1581 136.361 31.0274 138.476 28.6061C140.591 26.1847 143.546 24.6521 146.746 24.3162C149.027 24.0069 151.349 24.331 153.458 25.2529C155.566 26.1748 157.379 27.6589 158.698 29.5422C163.981 35.9374 166.347 46.6518 163.885 52.9277C161.423 59.2036 160.945 64.7159 162.116 65.6466C162.594 66.0284 163.598 65.4557 164.148 65.0739C164.307 64.9663 164.501 64.9259 164.69 64.9617C164.878 64.9975 165.044 65.1065 165.152 65.2648C165.26 65.423 165.3 65.6175 165.264 65.8054C165.229 65.9934 165.119 66.1594 164.961 66.267C164.26 66.8014 163.424 67.1318 162.547 67.2215Z" fill="white"/>
<path d="M161.136 71.0872L160.921 69.6555C164.794 69.1066 165.439 67.2692 165.463 66.1715C165.487 65.0738 165.296 63.5943 163.479 63.1171C161.662 62.6398 161.351 63.3795 161.328 63.4273L160.156 62.5682C160.609 62.0668 161.205 61.7173 161.864 61.5678C162.523 61.4183 163.213 61.476 163.837 61.733C164.814 61.9667 165.667 62.5569 166.229 63.3873C166.79 64.2176 167.02 65.228 166.873 66.2192C166.849 67.4362 166.228 70.3475 161.136 71.0872Z" fill="white"/>
<path d="M154.563 59.2036C154.228 58.9649 153.344 58.3206 156.14 51.83C158.363 46.6517 158.746 42.8575 157.479 39.0872C155.375 33.0738 152.364 30.5443 148.204 31.4034C142.467 32.5488 141.774 36.4146 141.75 36.5816L140.34 36.3669C140.34 36.176 141.153 31.3557 147.941 29.9955C152.913 28.9933 156.595 31.9045 158.913 38.6338C160.324 42.7621 159.893 46.8665 157.527 52.3788C155.447 57.1514 155.662 58.249 155.686 58.2968C155.635 58.1943 155.562 58.1046 155.471 58.0343L154.563 59.2036Z" fill="white"/>
<path d="M85.289 97.384C82.706 97.1774 80.27 96.1003 78.3808 94.3296C74.7235 91.4661 69.3212 82.9948 62.1501 68.3907C57.5127 59.0843 51.6084 59.7524 51.3694 59.8001L48.979 60.1104L58.3732 51.9493H58.7079C64.4248 53.2476 69.4378 56.6577 72.7395 61.4944C75.6739 65.6495 79.6685 68.9452 84.309 71.0395L83.7353 72.352C78.8003 70.1337 74.5737 66.5997 71.5204 62.1387C68.5065 57.7297 63.9559 54.5991 58.7557 53.3572L53.0666 58.4638C55.457 58.8695 59.8792 60.6592 63.417 67.7464C70.5881 82.0641 75.8231 90.5115 79.2653 93.208C83.7592 96.7159 85.9344 96.2147 88.1097 95.2602L88.6834 96.5727C87.6231 97.0825 86.4656 97.3592 85.289 97.384Z" fill="white"/>
<path d="M54.7743 57.7409C58.0094 55.3477 60.0202 52.5835 59.2656 51.567C58.5111 50.5505 55.2768 51.6666 52.0417 54.0598C48.8066 56.453 46.7958 59.2171 47.5504 60.2336C48.3049 61.2501 51.5392 60.1341 54.7743 57.7409Z" fill="white"/>
<path d="M48.549 60.9456C48.3077 60.9645 48.0654 60.9268 47.8413 60.8357C47.6172 60.7445 47.4175 60.6024 47.2581 60.4206C46.2303 59.0366 48.8597 55.9344 51.8238 53.739C54.7879 51.5436 58.5169 49.9448 59.5447 51.3527C60.5726 52.7368 57.9671 55.8389 55.003 58.0343C53.155 59.5696 50.9245 60.5758 48.549 60.9456ZM58.2778 51.5198C56.0538 51.889 53.9718 52.8539 52.2541 54.3117C48.8119 56.865 47.3538 59.3468 47.8557 59.9911C48.3577 60.6354 51.1306 59.9911 54.5727 57.4378C58.0149 54.8844 59.3535 52.4027 58.9711 51.7584C58.8793 51.6715 58.77 51.6052 58.6504 51.564C58.5308 51.5228 58.4038 51.5078 58.2778 51.5198Z" fill="white"/>
<path d="M119.95 69.4168C119.496 69.4168 108.954 67.3169 105.249 61.4228C101.544 55.5287 99.225 54.8844 99.2011 54.8844C99.117 54.8523 99.0469 54.7917 99.0032 54.7131C98.9595 54.6346 98.9449 54.5431 98.9621 54.4549C98.9874 54.3729 99.038 54.3011 99.1067 54.2496C99.1754 54.1982 99.2587 54.1698 99.3446 54.1685C104.736 54.8248 109.966 56.4412 114.786 58.9411C116.592 59.9454 118.07 61.4466 119.044 63.2658C120.019 65.085 120.45 67.1456 120.284 69.2021C120.283 69.2507 120.269 69.2982 120.244 69.3399C120.219 69.3817 120.183 69.4164 120.141 69.4407C120.076 69.4572 120.008 69.4487 119.95 69.4168ZM100.827 55.0992C102.725 56.7782 104.34 58.7524 105.607 60.9455C108.763 65.9567 117.559 68.1044 119.448 68.5339C119.491 66.7399 119.047 64.9677 118.163 63.405C117.279 61.8423 115.989 60.5472 114.428 59.657C110.222 57.3886 105.651 55.8705 100.922 55.1708L100.827 55.0992Z" fill="white"/>
<path d="M114.308 83.8539C108.452 83.8539 100.731 82.9232 96.3566 78.6756C94.0311 76.0905 91.0987 74.1225 87.8229 72.9486C87.7389 72.9216 87.6669 72.8665 87.619 72.7925C87.5711 72.7186 87.5502 72.6304 87.56 72.5429C87.5709 72.4604 87.6103 72.3843 87.6714 72.3277C87.7325 72.2711 87.8114 72.2375 87.8946 72.2327C90.2441 72.0676 92.4647 71.0983 94.1813 69.4885C96.9781 66.6488 104.173 67.1022 104.484 67.1022C121.025 70.2043 122.364 82.7323 122.364 82.8755C122.372 82.9632 122.347 83.0506 122.294 83.1211C122.241 83.1915 122.164 83.24 122.077 83.2573C119.505 83.636 116.909 83.8354 114.308 83.8539ZM89.4006 72.7577C92.1765 74.1058 94.693 75.9313 96.8347 78.1507C103.576 84.6891 119.065 82.9232 121.599 82.6607C121.264 80.6801 118.826 70.5862 104.388 67.8897C104.388 67.8897 97.2171 67.3885 94.6833 69.9896C93.2302 71.4065 91.3941 72.3686 89.4006 72.7577Z" fill="white"/>
<path d="M127.001 83.2812C126.936 83.2715 126.875 83.2441 126.824 83.2021C126.774 83.16 126.736 83.1048 126.714 83.0425C126.499 82.3028 121.312 64.9784 127.79 58.7502C132.304 54.7761 137.759 52.0166 143.638 50.7323C143.708 50.7273 143.777 50.7401 143.839 50.7693C143.902 50.7986 143.956 50.8433 143.997 50.8993C144.033 50.9565 144.052 51.0227 144.052 51.0902C144.052 51.1578 144.033 51.224 143.997 51.2812C143.997 51.2812 137.806 60.5876 136.491 67.0306C135.176 73.4735 127.671 82.78 127.336 83.1618C127.299 83.2135 127.247 83.2526 127.187 83.274C127.128 83.2953 127.063 83.2978 127.001 83.2812ZM142.85 51.6152C137.414 52.9159 132.382 55.5299 128.197 59.2275C122.746 64.5011 126.26 78.8665 127.145 82.1357C128.794 80.0597 134.579 72.3997 135.702 66.8636C137.293 61.4469 139.703 56.3047 142.85 51.6152Z" fill="white"/>
<path d="M120.38 68.3669C122.168 71.103 123.092 74.3117 123.033 77.5779C122.624 74.5332 121.337 71.6729 119.328 69.3452C119.264 69.2763 119.214 69.1954 119.181 69.1071C119.148 69.0188 119.132 68.9249 119.136 68.8307C119.139 68.7366 119.161 68.644 119.2 68.5582C119.239 68.4725 119.295 68.3953 119.364 68.3311C119.433 68.2668 119.514 68.2168 119.603 68.1838C119.691 68.1509 119.785 68.1356 119.879 68.1389C119.974 68.1423 120.067 68.1641 120.152 68.2032C120.238 68.2423 120.316 68.2979 120.38 68.3669Z" fill="white"/>
<path d="M89.9265 71.9702C101.683 71.206 113.271 75.079 122.197 82.7561C122.484 82.9709 122.197 83.4243 121.862 83.2095C112.922 76.17 101.496 71.5645 89.9982 72.519C89.9554 72.5317 89.9102 72.5343 89.8662 72.5265C89.8222 72.5188 89.7806 72.5008 89.7448 72.4742C89.709 72.4475 89.6799 72.4129 89.6599 72.373C89.6398 72.3332 89.6294 72.2892 89.6294 72.2446C89.6294 72.2 89.6398 72.156 89.6599 72.1161C89.6799 72.0763 89.709 72.0417 89.7448 72.015C89.7806 71.9883 89.8222 71.9704 89.8662 71.9626C89.9102 71.9548 89.9554 71.9574 89.9982 71.9702H89.9265Z" fill="white"/>
<path d="M100.396 54.4549C104.123 56.1876 107.718 58.1894 111.153 60.4444C114.698 62.5984 117.797 65.409 120.284 68.7248C120.348 68.8261 120.368 68.9483 120.341 69.0647C120.315 69.181 120.242 69.282 120.141 69.3453C120.04 69.4085 119.917 69.429 119.801 69.4022C119.684 69.3753 119.583 69.3033 119.519 69.2021C117.095 65.9547 114.078 63.1938 110.627 61.0649C107.265 58.7578 103.742 56.6925 100.086 54.8844C99.7748 54.7651 100.086 54.264 100.301 54.4072L100.396 54.4549Z" fill="white"/>
<path d="M143.663 51.1379C133.79 57.6763 129.511 71.7077 126.93 82.7561C126.916 82.7927 126.892 82.8242 126.86 82.8464C126.828 82.8687 126.79 82.8806 126.751 82.8806C126.712 82.8806 126.673 82.8687 126.641 82.8464C126.609 82.8242 126.585 82.7927 126.571 82.7561C127.782 73.5444 131.219 64.765 136.587 57.1752C138.438 54.6919 140.771 52.6062 143.447 51.0425C143.447 51.0425 143.639 51.0425 143.447 51.1857L143.663 51.1379Z" fill="white"/>
<path d="M100.898 73.2349C100.832 73.2315 100.767 73.2096 100.712 73.1717C100.658 73.1338 100.614 73.0813 100.588 73.0201C99.6076 70.777 98.5081 70.4907 98.5081 70.4907C98.413 70.4717 98.3293 70.4158 98.2755 70.3352C98.2217 70.2547 98.2022 70.1561 98.2212 70.0611C98.2402 69.9662 98.2963 69.8827 98.3769 69.829C98.4576 69.7753 98.5564 69.7558 98.6515 69.7748C98.7949 69.7748 100.134 70.1566 101.233 72.7338C101.252 72.7758 101.263 72.8214 101.263 72.8677C101.264 72.9139 101.255 72.9598 101.237 73.0024C101.219 73.045 101.193 73.0834 101.159 73.1152C101.125 73.1471 101.085 73.1715 101.042 73.1872L100.898 73.2349Z" fill="white"/>
<path d="M100.396 78.8665C100.309 78.8673 100.224 78.8362 100.158 78.7791C100.092 78.722 100.049 78.6427 100.038 78.5563C100.03 78.4623 100.058 78.3689 100.115 78.294C100.173 78.2191 100.256 78.168 100.349 78.1506C102.735 77.2526 104.932 75.9173 106.827 74.2133C106.896 74.1529 106.985 74.1196 107.078 74.1196C107.17 74.1196 107.259 74.1529 107.329 74.2133C107.394 74.2802 107.431 74.3702 107.431 74.4638C107.431 74.5575 107.394 74.6475 107.329 74.7144C102.309 78.4847 100.683 78.7711 100.516 78.7949L100.396 78.8665Z" fill="white"/>
<path d="M112.085 76.9098C111.99 76.9098 111.899 76.8721 111.832 76.8049C111.765 76.7378 111.727 76.6468 111.727 76.5518C111.46 74.1833 110.476 71.9523 108.906 70.1566C108.871 70.1252 108.842 70.0867 108.823 70.0435C108.803 70.0003 108.793 69.9534 108.793 69.906C108.793 69.8586 108.803 69.8118 108.823 69.7686C108.842 69.7254 108.871 69.6868 108.906 69.6555C108.973 69.5899 109.063 69.5532 109.157 69.5532C109.251 69.5532 109.341 69.5899 109.408 69.6555C111.09 71.5792 112.119 73.9848 112.348 76.528C112.349 76.6252 112.312 76.7189 112.245 76.7898C112.178 76.8608 112.087 76.9037 111.99 76.9098H112.085Z" fill="white"/>
<path d="M109.671 81.7062C109.053 81.7064 108.436 81.6425 107.83 81.5153H107.568C107.524 81.5257 107.478 81.5272 107.433 81.5195C107.389 81.5119 107.346 81.4953 107.308 81.4708C107.27 81.4462 107.238 81.4143 107.212 81.3768C107.187 81.3393 107.17 81.2971 107.161 81.2528C107.14 81.161 107.155 81.0645 107.204 80.9841C107.253 80.9036 107.332 80.8459 107.424 80.8232C107.604 80.7768 107.794 80.7768 107.974 80.8232C110.993 81.2977 114.081 80.625 116.627 78.9381C116.707 78.9119 116.794 78.9147 116.872 78.9458C116.95 78.977 117.015 79.0346 117.054 79.1085C117.094 79.1825 117.107 79.2681 117.09 79.3503C117.073 79.4326 117.028 79.5063 116.962 79.5585C114.747 80.865 112.242 81.6029 109.671 81.7062Z" fill="white"/>
<path d="M110.603 61.8523C109.175 61.7912 107.758 61.5833 106.372 61.2319C106.289 61.2022 106.22 61.1428 106.177 61.065C106.135 60.9873 106.124 60.8967 106.144 60.8108C106.165 60.7248 106.217 60.6496 106.29 60.5996C106.363 60.5496 106.452 60.5283 106.54 60.5399C108.145 61.0468 109.839 61.2094 111.512 61.0171C111.586 60.9683 111.675 60.9485 111.763 60.9615C111.85 60.9746 111.93 61.0195 111.986 61.0876C112.043 61.1558 112.072 61.2424 112.068 61.3307C112.064 61.419 112.028 61.5028 111.966 61.566C111.55 61.7943 111.076 61.894 110.603 61.8523Z" fill="white"/>
<path d="M114.93 64.0239C114.839 64.0119 114.756 63.9657 114.699 63.8947C114.641 63.8237 114.612 63.7333 114.619 63.6421C114.597 62.6775 114.436 61.7212 114.141 60.8024C114.127 60.7586 114.121 60.7122 114.126 60.6662C114.13 60.6203 114.144 60.5757 114.166 60.5353C114.189 60.495 114.219 60.4597 114.256 60.4317C114.293 60.4038 114.335 60.3837 114.38 60.3729C114.426 60.3582 114.474 60.3527 114.521 60.3568C114.569 60.3609 114.615 60.3744 114.658 60.3967C114.7 60.4189 114.737 60.4494 114.768 60.4863C114.798 60.5232 114.821 60.5657 114.834 60.6115C115.158 61.6142 115.327 62.6602 115.336 63.7137C115.319 63.8063 115.268 63.8893 115.193 63.9466C115.118 64.0039 115.024 64.0314 114.93 64.0239Z" fill="white"/>
<path d="M134.436 61.3512C134.361 61.3543 134.288 61.3325 134.227 61.2893C134.167 61.246 134.122 61.1839 134.101 61.1126C133.458 59.4495 133.197 57.6638 133.336 55.8866C133.403 55.821 133.493 55.7843 133.587 55.7843C133.681 55.7843 133.771 55.821 133.838 55.8866C133.889 55.9468 133.916 56.0228 133.916 56.1014C133.916 56.1799 133.889 56.256 133.838 56.3162C133.883 57.9002 134.165 59.4685 134.675 60.9694C134.689 61.0148 134.695 61.0627 134.691 61.1103C134.687 61.1579 134.673 61.2041 134.651 61.2464C134.628 61.2886 134.598 61.326 134.561 61.3563C134.524 61.3866 134.481 61.4092 134.436 61.4228V61.3512Z" fill="white"/>
<path d="M130.993 68.4624C130.916 68.4642 130.84 68.439 130.779 68.3911C130.718 68.3432 130.675 68.2756 130.659 68.1999C130.637 68.1081 130.653 68.0116 130.702 67.9312C130.751 67.8508 130.83 67.793 130.922 67.7703C132.182 67.4737 133.38 66.9566 134.459 66.2431C134.526 66.1775 134.617 66.1408 134.71 66.1408C134.804 66.1408 134.894 66.1775 134.961 66.2431C135.027 66.31 135.064 66.4 135.064 66.4937C135.064 66.5874 135.027 66.6773 134.961 66.7442C133.795 67.5159 132.5 68.0735 131.137 68.3908L130.993 68.4624Z" fill="white"/>
<path d="M129.081 74.2371C128.99 74.2273 128.905 74.185 128.842 74.1178C127.025 72.3042 126.237 66.7442 126.213 66.5056C126.205 66.4116 126.233 66.3181 126.29 66.2432C126.347 66.1683 126.431 66.1173 126.523 66.0999C126.618 66.0924 126.711 66.1199 126.786 66.1772C126.861 66.2345 126.912 66.3174 126.93 66.4101C126.93 66.4101 127.719 71.9701 129.32 73.569C129.356 73.6003 129.384 73.6389 129.404 73.6821C129.423 73.7253 129.433 73.7721 129.433 73.8195C129.433 73.8669 129.423 73.9138 129.404 73.957C129.384 74.0002 129.356 74.0387 129.32 74.0701C129.266 74.1551 129.18 74.2152 129.081 74.2371Z" fill="white"/>
<path d="M127.432 82.0403C127.058 85.7201 127.694 89.4322 129.272 92.7785C128.833 91.9542 128.449 91.1012 128.125 90.2252C127.02 87.6023 126.529 84.762 126.691 81.921C126.699 81.874 126.716 81.829 126.741 81.7885C126.766 81.7481 126.799 81.713 126.838 81.6853C126.877 81.6576 126.921 81.6378 126.967 81.6271C127.014 81.6163 127.062 81.6148 127.109 81.6227C127.156 81.6305 127.201 81.6475 127.242 81.6728C127.282 81.698 127.317 81.7309 127.345 81.7697C127.373 81.8085 127.393 81.8523 127.403 81.8987C127.414 81.9452 127.416 81.9933 127.408 82.0403H127.432Z" fill="white"/>
<path d="M121.743 81.8494C123.857 83.7689 125.375 86.2534 126.117 89.0082C126.308 89.6525 126.691 90.9411 126.858 91.6093L126.332 90.3684C125.495 88.3115 124.333 86.402 122.89 84.7129C122.354 84.079 121.716 83.5387 121.002 83.1141C120.911 83.0711 120.83 83.0096 120.765 82.9336C120.7 82.8575 120.651 82.7686 120.622 82.6726C120.593 82.5766 120.585 82.4756 120.598 82.3762C120.611 82.2768 120.644 82.1812 120.696 82.0956C120.749 82.0099 120.818 81.9362 120.901 81.8791C120.983 81.822 121.077 81.7828 121.175 81.7641C121.274 81.7454 121.375 81.7476 121.473 81.7705C121.571 81.7934 121.663 81.8365 121.743 81.8971V81.8494Z" fill="white"/>
<path d="M112.97 241.658C116.508 239.972 119.854 238.198 123.009 236.337C125.947 234.607 128.774 232.694 131.471 230.61C133.777 228.62 135.912 226.441 137.854 224.095C139.681 221.851 141.237 219.4 142.491 216.793L148.276 218.631C148.468 218.664 148.642 218.764 148.769 218.912C148.896 219.06 148.966 219.247 148.969 219.442C148.962 219.636 148.89 219.821 148.764 219.968C148.638 220.115 148.466 220.216 148.276 220.253L146.363 221.017C148.493 223.092 150.788 224.991 153.224 226.696C155.437 228.286 157.753 229.729 160.156 231.016C162.613 232.326 165.161 233.459 167.781 234.404C170.459 235.382 173.351 236.337 176.458 237.22L176.243 239.057C175.627 239.051 175.011 239.099 174.403 239.201C173.969 239.275 173.544 239.395 173.136 239.558C172.66 239.719 172.255 240.04 171.988 240.465C171.809 240.738 171.694 241.048 171.654 241.372C168.947 240.311 166.319 239.059 163.789 237.626C161.445 236.271 159.171 234.797 156.977 233.211C154.661 231.684 152.464 229.985 150.403 228.128C148.309 226.226 146.33 224.202 144.475 222.067C142.545 224.533 140.41 226.832 138.093 228.94C135.855 230.974 133.457 232.825 130.922 234.476C129.706 235.35 128.437 236.147 127.121 236.862C125.806 237.626 124.444 238.341 123.009 239.057C121.575 239.773 120.069 240.465 118.563 241.133L113.974 243.209L112.97 241.658ZM136.252 206.795V210.804H152.196V208.752C152.196 208.195 152.196 207.399 152.196 206.365C152.196 205.411 152.077 204.337 151.981 203.168L157.646 204.504C157.878 204.558 158.088 204.68 158.25 204.855C158.412 205.029 158.518 205.248 158.554 205.482C158.579 205.575 158.584 205.672 158.569 205.766C158.555 205.861 158.52 205.952 158.469 206.033C158.417 206.113 158.349 206.182 158.269 206.236C158.189 206.289 158.099 206.325 158.005 206.341L155.949 206.747V210.708H166.825L169.718 207.606C170.076 207.177 170.411 206.962 170.65 206.962C171.086 207.041 171.491 207.239 171.821 207.535L175.287 211.329C175.417 211.446 175.51 211.6 175.552 211.77C175.595 211.94 175.586 212.118 175.526 212.283C175.487 212.447 175.391 212.592 175.256 212.693C175.12 212.793 174.954 212.842 174.785 212.832H155.662V218.249C155.671 218.433 155.634 218.617 155.555 218.783C155.475 218.949 155.356 219.094 155.208 219.204C154.809 219.431 154.352 219.539 153.893 219.514C153.358 219.534 152.826 219.428 152.339 219.204C152.149 219.127 151.985 218.995 151.87 218.825C151.755 218.655 151.694 218.454 151.694 218.249C151.694 217.533 151.861 216.698 151.909 215.72C151.957 214.741 151.909 213.763 151.909 212.832H136.252V219.227C136.251 219.441 136.186 219.65 136.067 219.828C135.949 220.006 135.78 220.146 135.583 220.23C135.105 220.454 134.582 220.569 134.053 220.564C133.562 220.575 133.076 220.46 132.643 220.23C132.468 220.129 132.324 219.982 132.227 219.806C132.13 219.629 132.083 219.429 132.093 219.227C132.093 218.631 132.093 217.796 132.236 216.841C132.38 215.887 132.236 214.908 132.236 214.168V212.904H121.719C120.26 212.904 118.85 212.904 117.464 212.904C116.077 212.904 115.073 212.904 114.667 212.904L113.615 209.992C115.064 210.312 116.534 210.527 118.013 210.637C119.4 210.637 120.643 210.78 121.719 210.78H132.188V208.728C132.188 208.179 132.188 207.678 132.188 207.248C132.212 206.827 132.212 206.405 132.188 205.984C132.188 205.602 132.188 205.196 132.188 204.743C132.188 204.289 132.188 203.788 132.188 203.168L137.83 204.576C138.499 204.719 138.834 205.005 138.882 205.459C138.919 205.648 138.882 205.844 138.78 206.008C138.678 206.172 138.518 206.291 138.332 206.341L136.252 206.795ZM115.982 265.688C119.403 263.533 122.508 260.915 125.209 257.909C127.796 255.009 129.815 251.65 131.161 248.006L137.089 250.392C137.662 250.583 137.949 250.917 137.949 251.394C137.949 251.872 137.686 252.11 137.16 252.158L134.196 252.301C132.834 254.186 131.543 255.785 130.348 257.074C129.179 258.371 127.943 259.606 126.643 260.772C125.33 261.88 123.957 262.916 122.531 263.875C121.025 264.853 119.328 265.903 117.392 267.025L115.982 265.688ZM142.276 241.372V237.22C142.276 236.568 142.276 235.772 142.276 234.834C142.276 233.879 142.132 232.734 141.989 231.421L147.774 232.972C148.348 233.116 148.634 233.402 148.658 233.831C148.672 233.921 148.667 234.013 148.644 234.1C148.62 234.188 148.58 234.27 148.524 234.341C148.468 234.413 148.398 234.472 148.318 234.516C148.239 234.559 148.151 234.586 148.061 234.595L146.148 235.096V241.42H154.347L156.953 238.461C157.223 238.14 157.594 237.922 158.005 237.84C158.419 237.902 158.799 238.104 159.08 238.413L162.451 241.849C162.574 241.956 162.66 242.099 162.699 242.257C162.737 242.415 162.726 242.581 162.666 242.732C162.642 242.912 162.549 243.075 162.406 243.186C162.263 243.298 162.081 243.349 161.901 243.329H146.005V267.86C146.017 268.07 145.967 268.28 145.861 268.463C145.755 268.645 145.597 268.792 145.407 268.886C144.938 269.11 144.421 269.216 143.901 269.196C143.389 269.214 142.881 269.108 142.419 268.886C142.221 268.8 142.053 268.655 141.938 268.472C141.823 268.289 141.766 268.076 141.774 267.86C141.87 267.287 141.965 266.492 142.061 265.473C142.156 264.455 142.204 263.501 142.204 262.61V243.4H134.364C132.953 243.4 131.543 243.4 130.157 243.4C129.228 243.425 128.302 243.504 127.384 243.639L126.452 240.394C127.826 240.742 129.224 240.989 130.635 241.133C131.872 241.28 133.117 241.36 134.364 241.372H142.276ZM154.347 249.199C156.594 250.599 158.913 252.102 161.303 253.709C163.161 254.912 164.919 256.261 166.562 257.742C167.439 258.661 168.238 259.651 168.953 260.701C169.526 261.429 169.875 262.308 169.957 263.23C169.988 263.865 169.793 264.491 169.407 264.996C169.087 265.402 168.627 265.675 168.116 265.76C167.591 265.791 167.07 265.649 166.634 265.354C166.051 264.944 165.629 264.346 165.439 263.66L160.658 257.098C160.18 256.62 159.63 256.119 158.985 255.547C158.339 254.974 157.718 254.425 157.049 253.852C156.379 253.28 155.638 252.731 154.921 252.206C154.204 251.681 153.559 251.132 152.961 250.607L154.347 249.199Z" fill="#C0DCB1"/>
<path d="M51.2499 187.132C41.1473 187.145 31.3623 183.609 23.6091 177.143C15.856 170.677 10.6291 161.694 8.84436 151.767C8.40297 154.289 8.17905 156.844 8.17505 159.403C8.17505 170.795 12.7082 181.721 20.7774 189.776C28.8465 197.831 39.7906 202.356 51.2021 202.356C62.6136 202.356 73.5576 197.831 81.6268 189.776C89.6959 181.721 94.2291 170.795 94.2291 159.403C94.2291 156.842 93.9971 154.287 93.5359 151.767C91.7547 161.674 86.5454 170.641 78.817 177.105C71.0886 183.568 61.3319 187.117 51.2499 187.132Z" fill="#FFD85C"/>
<g opacity="0.6">
<path d="M90.6197 228.868H69.895C68.9544 228.763 68.0855 228.315 67.4545 227.611C66.8236 226.907 66.4748 225.995 66.4748 225.05C66.4748 224.105 66.8236 223.193 67.4545 222.489C68.0855 221.785 68.9544 221.337 69.895 221.232H69.5365H75.6798C76.2123 221.274 76.7477 221.205 77.2524 221.031C77.757 220.856 78.2201 220.579 78.6123 220.217C79.0046 219.855 79.3176 219.416 79.5316 218.927C79.7457 218.439 79.8562 217.911 79.8562 217.378C79.8562 216.845 79.7457 216.317 79.5316 215.829C79.3176 215.34 79.0046 214.901 78.6123 214.539C78.2201 214.177 77.757 213.9 77.2524 213.726C76.7477 213.551 76.2123 213.482 75.6798 213.524H31.0751C30.5426 213.482 30.0071 213.551 29.5025 213.726C28.9978 213.9 28.5348 214.177 28.1425 214.539C27.7503 214.901 27.4373 215.34 27.2232 215.829C27.0091 216.317 26.8986 216.845 26.8986 217.378C26.8986 217.911 27.0091 218.439 27.2232 218.927C27.4373 219.416 27.7503 219.855 28.1425 220.217C28.5348 220.579 28.9978 220.856 29.5025 221.031C30.0071 221.205 30.5426 221.274 31.0751 221.232H51.3456H51.0348C52.0492 221.232 53.022 221.634 53.7393 222.35C54.4565 223.066 54.8595 224.037 54.8595 225.05C54.8595 226.063 54.4565 227.034 53.7393 227.75C53.022 228.466 52.0492 228.868 51.0348 228.868H16.2068C15.2354 228.944 14.3286 229.384 13.6672 230.098C13.0058 230.812 12.6384 231.749 12.6384 232.722C12.6384 233.695 13.0058 234.632 13.6672 235.346C14.3286 236.06 15.2354 236.499 16.2068 236.576H29.6647H29.354C30.3683 236.576 31.3412 236.978 32.0584 237.694C32.7757 238.41 33.1786 239.381 33.1786 240.394C33.1786 241.406 32.7757 242.377 32.0584 243.094C31.3412 243.81 30.3683 244.212 29.354 244.212H29.6647H25.0035C24.471 244.17 23.9356 244.239 23.4309 244.413C22.9262 244.588 22.4632 244.865 22.0709 245.227C21.6787 245.589 21.3657 246.028 21.1516 246.516C20.9375 247.005 20.827 247.532 20.827 248.066C20.827 248.599 20.9375 249.126 21.1516 249.615C21.3657 250.103 21.6787 250.542 22.0709 250.904C22.4632 251.266 22.9262 251.543 23.4309 251.718C23.9356 251.893 24.471 251.961 25.0035 251.919H79.1219C79.6544 251.961 80.1899 251.893 80.6945 251.718C81.1992 251.543 81.6622 251.266 82.0545 250.904C82.4467 250.542 82.7597 250.103 82.9738 249.615C83.1879 249.126 83.2984 248.599 83.2984 248.066C83.2984 247.532 83.1879 247.005 82.9738 246.516C82.7597 246.028 82.4467 245.589 82.0545 245.227C81.6622 244.865 81.1992 244.588 80.6945 244.413C80.1899 244.239 79.6544 244.17 79.1219 244.212H45.6565H46.015C45.0744 244.107 44.2055 243.659 43.5745 242.955C42.9436 242.25 42.5948 241.339 42.5948 240.394C42.5948 239.449 42.9436 238.537 43.5745 237.833C44.2055 237.128 45.0744 236.681 46.015 236.576H45.6565H90.6197C91.5911 236.499 92.4979 236.06 93.1594 235.346C93.8208 234.632 94.1881 233.695 94.1881 232.722C94.1881 231.749 93.8208 230.812 93.1594 230.098C92.4979 229.384 91.5911 228.944 90.6197 228.868Z" fill="white"/>
</g>
</g>
<defs>
<clipPath id="clip0_146_4">
<rect width="199" height="288" fill="white"/>
</clipPath>
</defs>
</svg>
