<svg width="428" height="143" viewBox="0 0 428 143" fill="none" xmlns="http://www.w3.org/2000/svg">
<g clip-path="url(#clip0_146_45)">
<g filter="url(#filter0_d_146_45)">
<path d="M188.092 52.8016C187.996 53.7544 188.168 54.7148 188.587 55.5766C188.917 56.0434 189.785 56.2249 191.192 56.1212C195.464 55.8445 199.806 55.4296 204.218 54.8763C208.629 54.3231 212.797 53.6747 216.722 52.9313C220.708 52.1014 224.538 51.1678 227.82 50.1564C230.821 49.2956 233.742 48.1762 236.548 46.8109C237.251 46.4958 237.997 46.286 238.762 46.1885C240.009 46.1373 241.238 46.5024 242.253 47.2258C244.207 48.5225 245.145 49.8192 245.066 50.9084C244.988 51.9977 243.712 53.2684 241.289 54.4614C233.269 58.5467 224.722 61.5137 215.889 63.279C206.763 65.1877 197.534 66.5732 188.248 67.4284C187.675 67.4284 186.919 67.584 185.929 67.6359C184.94 67.6877 184.184 67.6359 183.637 67.6359C182.661 67.6091 181.705 67.3513 180.849 66.8838C179.808 66.3603 178.822 65.7347 177.906 65.0165C177.003 64.299 176.243 63.4193 175.665 62.4231C175.175 61.641 174.889 60.7497 174.832 59.8297V29.1758C174.932 27.6398 174.836 26.0973 174.545 24.5854C174.149 23.7741 173.474 23.1303 172.643 22.7701C171.778 22.4726 171.011 21.9431 170.429 21.24C170.106 20.5979 169.962 19.8815 170.012 19.1652V14.7046L178.322 15.5604H200.101H204.166C206.015 15.5604 207.969 15.4048 210.027 15.1973C212.085 14.9899 214.195 14.9639 216.149 14.7305C217.701 14.5667 219.241 14.3068 220.76 13.9525C221.832 13.6803 222.937 13.5581 224.043 13.5894C224.96 13.6963 225.847 13.9874 226.648 14.4453L229.253 15.9754C230.581 16.6407 231.746 17.5879 232.666 18.7503C232.812 19.21 232.857 19.6957 232.799 20.1744C232.741 20.6531 232.58 21.1137 232.327 21.5252C231.862 22.7449 231.024 23.7881 229.93 24.5076C228.671 24.9177 227.345 25.0849 226.023 25.0004H187.962C187.937 25.389 187.937 25.7788 187.962 26.1674C187.962 26.6083 187.962 26.9454 187.962 27.2307L188.092 52.8016ZM211.694 88.6424C210.566 88.6424 209.445 88.6943 208.334 88.798C207.214 88.798 206.145 88.798 205.129 88.798C204.113 88.798 202.655 88.798 200.805 88.798C199.471 88.8015 198.147 88.5642 196.897 88.0978C195.938 87.7758 195.09 87.1916 194.448 86.4121C194.158 86.1 193.948 85.7215 193.839 85.3099C193.73 84.8983 193.725 84.4663 193.823 84.0521L194.943 77.2574C199.531 78.0857 204.17 78.5969 208.829 78.7875C213.44 78.969 217.556 79.0468 221.177 79.0468H228.732C231.337 79.0468 233.76 79.0468 236.261 79.0468L243.66 78.8393L251.136 78.5541L258.743 78.2688C259.709 78.2903 260.669 78.412 261.609 78.6319C262.463 78.7802 263.283 79.0788 264.032 79.5136C264.456 80.0407 264.831 80.6049 265.152 81.1993C265.556 82.0031 265.753 82.8943 265.725 83.7927V103.943C265.774 104.772 265.621 105.601 265.281 106.359C264.941 107.117 264.424 107.783 263.771 108.3C261.833 109.448 259.584 109.964 257.337 109.779L210.704 110.194V120.567C210.649 121.469 210.755 122.373 211.017 123.238C211.304 123.887 212.294 124.224 213.961 124.224H237.069C240.641 124.227 244.209 123.993 247.75 123.524C251.241 123.057 253.924 122.59 255.774 122.149C256.779 121.896 257.811 121.757 258.848 121.734C259.851 121.764 260.844 121.947 261.791 122.279L266.663 124.224C267.995 124.639 269.215 125.348 270.232 126.299C270.798 127.364 270.973 128.593 270.727 129.774C270.441 131.719 269.867 132.886 269.034 133.249C267.641 133.706 266.174 133.9 264.709 133.819H211.538C210.092 133.806 208.649 133.71 207.214 133.534C205.685 133.366 204.186 132.99 202.759 132.419C201.39 131.795 200.193 130.852 199.268 129.67C198.295 128.179 197.847 126.41 197.991 124.639V114.628C198.022 113.397 197.952 112.166 197.783 110.946C197.762 110.578 197.643 110.222 197.436 109.917C197.23 109.611 196.945 109.366 196.611 109.208C195.405 108.721 194.327 107.967 193.458 107.004C192.713 106.156 192.297 105.07 192.286 103.943V100.053L202.472 100.883H202.759L250.772 100.313C251.779 100.313 252.404 100.157 252.647 99.8459C252.934 99.3137 253.061 98.7104 253.012 98.1083V89.7576C253.012 88.9277 252.856 88.4349 252.595 88.3053C252.148 88.1312 251.667 88.0603 251.188 88.0978L211.694 88.6424ZM253.715 13.8747C253.844 12.3028 253.49 10.7291 252.699 9.3622C251.697 8.06765 250.471 6.96116 249.078 6.09452C248.763 5.93041 248.502 5.67919 248.326 5.37098C248.15 5.06278 248.068 4.71068 248.088 4.35694C248.054 3.56941 248.215 2.78558 248.557 2.07475C248.992 1.34792 249.612 0.748475 250.355 0.33717C250.758 0.13021 251.204 0.0222168 251.657 0.0222168C252.111 0.0222168 252.557 0.13021 252.96 0.33717L262.443 4.51254C264.015 5.02953 265.401 5.99433 266.429 7.28748C266.913 8.47966 267.127 9.76386 267.054 11.0479V39.1604H268.304C269.613 39.1763 270.92 39.0809 272.212 38.8751C273.974 38.5729 275.714 38.1571 277.422 37.6302C278.36 37.345 279.142 37.1116 279.741 36.8782C280.24 36.5924 280.788 36.3991 281.356 36.3076C281.907 36.2044 282.472 36.2044 283.023 36.3076C283.701 36.4859 284.356 36.7381 284.977 37.0597L292.089 41.4944C292.416 41.6622 292.703 41.8967 292.932 42.1828C293.161 42.4689 293.327 42.7999 293.418 43.1542C293.486 43.5046 293.465 43.8664 293.355 44.2063C293.246 44.5462 293.053 44.8533 292.793 45.0992L290.188 48.1594C289.91 48.5289 289.553 48.8323 289.143 49.0476C288.733 49.2629 288.28 49.3847 287.817 49.4043C286.878 49.5125 285.927 49.4151 285.029 49.119C284.196 48.8597 283.44 48.6522 282.737 48.4966C281.833 48.3464 280.918 48.277 280.001 48.2891H266.976V54.8245C266.974 56.6961 266.565 58.5452 265.777 60.2447C265.008 61.9713 264.047 63.6067 262.912 65.1203C261.893 66.5091 260.778 67.8263 259.577 69.0622C258.779 69.9463 257.908 70.7618 256.972 71.5C256.698 71.7601 256.367 71.9521 256.005 72.0602C255.643 72.1684 255.26 72.1897 254.888 72.1224C254.132 72.1224 253.768 71.6038 253.768 70.9554L253.715 13.8747Z" fill="#2C285B"/>
</g>
<g filter="url(#filter1_d_146_45)">
<path d="M293.209 84.856C300.695 81.2771 307.781 77.5253 314.467 73.6007C320.799 69.9353 326.89 65.8727 332.704 61.4376C337.62 57.2466 342.154 52.6296 346.25 47.6408C350.148 42.8713 353.446 37.6458 356.072 32.0804L368.342 35.9705C368.747 36.0409 369.113 36.2511 369.378 36.5642C369.642 36.8773 369.787 37.2731 369.787 37.6821C369.787 38.0911 369.642 38.4869 369.378 38.8C369.113 39.1131 368.747 39.3233 368.342 39.3937L364.304 41.0276C368.762 45.436 373.571 49.4776 378.684 53.1128C383.383 56.4619 388.291 59.511 393.377 62.2416C398.606 64.9787 404.011 67.3699 409.555 69.3994C415.235 71.4741 421.383 73.471 427.974 75.3382L427.505 79.2283C426.205 79.2182 424.907 79.3136 423.623 79.5136C422.732 79.6776 421.859 79.9295 421.018 80.2657C419.946 80.5876 419.023 81.2766 418.413 82.2108C418.022 82.7901 417.789 83.4602 417.736 84.1558C412.045 81.912 406.517 79.2777 401.193 76.2719C396.204 73.4376 391.377 70.3294 386.734 66.9616C381.824 63.7359 377.165 60.1468 372.797 56.2249C368.372 52.193 364.18 47.9158 360.24 43.4135C356.091 48.5888 351.553 53.4437 346.667 57.9365C341.965 62.2132 336.94 66.1235 331.635 69.6328C329.028 71.5019 326.324 73.2332 323.533 74.8196C320.746 76.4015 317.854 77.9316 314.858 79.4358C311.862 80.94 308.606 82.3923 305.428 83.8187L295.606 88.1756L293.209 84.856ZM342.317 11.0479V19.5542H376.183V15.2233C376.183 14.0303 376.183 12.4224 376.027 10.3736C375.871 8.32483 375.767 6.09451 375.584 3.60485L387.568 6.43165C388.068 6.53164 388.523 6.78597 388.869 7.15847C389.215 7.53096 389.435 8.00263 389.496 8.50637C389.55 8.70299 389.56 8.9088 389.528 9.10995C389.495 9.3111 389.419 9.50292 389.306 9.67247C389.192 9.84203 389.043 9.9854 388.869 10.0929C388.695 10.2005 388.5 10.2696 388.297 10.2958L383.973 11.2035V19.5542H407.028L413.619 12.6817C414.401 11.8 415.078 11.3591 415.625 11.3591C416.593 11.4937 417.499 11.9085 418.231 12.5521L425.577 20.5916C425.859 20.8366 426.061 21.1612 426.154 21.5224C426.247 21.8836 426.227 22.2644 426.098 22.6145C426.008 22.9521 425.803 23.2481 425.518 23.4515C425.233 23.655 424.885 23.7533 424.535 23.7296H383.973V35.1924C383.997 35.586 383.919 35.9792 383.746 36.3338C383.572 36.6883 383.309 36.992 382.983 37.2153C382.151 37.7099 381.189 37.9448 380.221 37.8896C379.081 37.9189 377.95 37.6883 376.913 37.2153C376.513 37.0492 376.173 36.7677 375.936 36.407C375.7 36.0464 375.577 35.6233 375.584 35.1924C375.767 33.7142 375.923 31.9248 376.027 29.8241C376.131 27.7235 376.183 25.7006 376.183 23.7296H342.317V37.2931C342.311 37.7378 342.174 38.171 341.924 38.5396C341.674 38.9082 341.322 39.196 340.91 39.3678C339.914 39.8864 338.803 40.1452 337.679 40.1199C336.628 40.1655 335.587 39.904 334.683 39.3678C334.316 39.1598 334.011 38.8577 333.8 38.4929C333.59 38.1281 333.481 37.7139 333.485 37.2931C333.589 35.9964 333.694 34.2675 333.798 32.1063C333.798 29.9019 333.954 28.0347 333.954 26.4268V23.8334H311.784C308.675 23.8334 305.653 23.8852 302.718 23.989C299.774 23.989 297.795 24.1705 296.805 24.2742L294.564 17.9982C297.644 18.6775 300.77 19.1282 303.917 19.3468C306.86 19.5542 309.492 19.658 311.732 19.658H333.902V15.2233C333.902 14.0303 333.746 12.9929 333.746 12.0853C333.742 11.2186 333.69 10.3527 333.589 9.49186C333.589 8.68791 333.589 7.83209 333.589 6.89846C333.589 5.96484 333.589 4.84968 333.381 3.55298L345.365 6.53539C346.745 6.82066 347.501 7.44308 347.605 8.40263C347.677 8.80683 347.594 9.22338 347.372 9.56939C347.15 9.91539 346.806 10.1655 346.407 10.2699L342.317 11.0479ZM299.358 135.687C306.596 131.112 313.17 125.571 318.896 119.219C324.385 113.076 328.679 105.97 331.557 98.2639L344.114 103.451C345.338 103.866 345.912 104.566 345.912 105.551C345.912 106.537 345.365 107.081 344.27 107.185L337.992 107.496C335.092 111.473 332.365 114.879 329.812 117.714C327.358 120.454 324.748 123.051 321.996 125.495C319.202 127.852 316.271 130.043 313.217 132.056C310.091 134.148 306.478 136.387 302.38 138.773L299.358 135.687ZM355.212 84.2595V75.442C355.212 74.0588 355.16 72.3299 355.056 70.2552C355.056 68.2323 354.769 65.8205 354.457 63.0196L366.753 66.3132C367.951 66.5985 368.55 67.195 368.603 68.1027C368.632 68.2922 368.622 68.4856 368.575 68.6714C368.527 68.8573 368.443 69.0316 368.326 69.1842C368.209 69.3367 368.063 69.4642 367.896 69.5591C367.728 69.654 367.543 69.7143 367.352 69.7365L363.288 70.7739V84.2077H380.664L386.213 77.9316C386.772 77.2271 387.568 76.748 388.454 76.5831C389.346 76.7073 390.166 77.1385 390.772 77.802L397.963 85.1154C398.215 85.3469 398.393 85.6486 398.471 85.9814C398.55 86.3142 398.527 86.6629 398.405 86.9826C398.353 87.3661 398.152 87.7141 397.845 87.9517C397.539 88.1893 397.15 88.2976 396.764 88.2534H363.288V140.044C363.317 140.492 363.211 140.939 362.984 141.327C362.757 141.715 362.418 142.027 362.011 142.222C361.015 142.703 359.914 142.935 358.807 142.896C357.718 142.915 356.64 142.684 355.655 142.222C355.236 142.036 354.883 141.728 354.641 141.34C354.4 140.951 354.281 140.5 354.3 140.044C354.509 138.851 354.717 137.139 354.899 134.857C355.082 132.575 355.212 130.604 355.212 128.814V88.1756H338.669C335.673 88.1756 332.704 88.1756 329.76 88.3831C327.779 88.4421 325.804 88.624 323.846 88.9277L321.892 82.0552C324.794 82.7906 327.746 83.3193 330.724 83.6371C333.318 83.9393 335.927 84.1125 338.539 84.1558L355.212 84.2595ZM380.821 100.805C385.614 103.788 390.538 106.952 395.566 110.349C399.507 112.87 403.236 115.707 406.716 118.83C408.517 120.799 410.171 122.897 411.666 125.106C412.876 126.654 413.609 128.519 413.776 130.474C413.854 131.807 413.447 133.124 412.63 134.182C411.945 135.054 410.962 135.645 409.868 135.842C408.747 135.886 407.641 135.567 406.716 134.935C405.467 134.068 404.549 132.807 404.111 131.356L393.925 117.507C392.909 116.495 391.736 115.406 390.408 114.213L386.291 110.634C384.78 109.441 383.296 108.274 381.785 107.133C380.274 105.992 378.971 104.877 377.747 103.736L380.821 100.805Z" fill="#2C285B"/>
</g>
<path d="M77.0344 79.3321L64.5296 64.6016L45.2776 66.4688L55.4898 50.1045L47.7264 32.4434L66.5356 37.0597L80.9942 24.2483L82.401 43.4654L99.126 53.2166L81.1765 60.4781L77.0344 79.3321Z" fill="#FFE75B"/>
<path d="M72.1887 108.223C55.266 108.223 38.8811 102.304 25.896 91.5015C12.9109 80.6986 4.15095 65.6977 1.14628 49.119C-0.587179 58.9201 -0.256826 68.9727 2.1164 78.64C4.48964 88.3074 8.85401 97.3786 14.933 105.279C21.012 113.18 28.6731 119.737 37.4309 124.536C46.1887 129.335 55.8524 132.271 65.8095 133.157C75.7666 134.044 85.8003 132.862 95.2746 129.687C104.749 126.512 113.458 121.412 120.849 114.711C128.24 108.01 134.152 99.854 138.211 90.7595C142.271 81.6649 144.388 71.8303 144.429 61.8785C144.419 57.6004 144.036 53.3311 143.283 49.119C140.272 65.7042 131.503 80.709 118.508 91.5121C105.514 102.315 89.1189 108.23 72.1887 108.223Z" fill="#FFD000"/>
</g>
<defs>
<filter id="filter0_d_146_45" x="167.002" y="-2.97778" width="143.454" height="153.815" filterUnits="userSpaceOnUse" color-interpolation-filters="sRGB">
<feFlood flood-opacity="0" result="BackgroundImageFix"/>
<feColorMatrix in="SourceAlpha" type="matrix" values="0 0 0 0 0 0 0 0 0 0 0 0 0 0 0 0 0 0 127 0" result="hardAlpha"/>
<feOffset dx="7" dy="7"/>
<feGaussianBlur stdDeviation="5"/>
<feColorMatrix type="matrix" values="0 0 0 0 0 0 0 0 0 0 0 0 0 0 0 0 0 0 0.25 0"/>
<feBlend mode="normal" in2="BackgroundImageFix" result="effect1_dropShadow_146_45"/>
<feBlend mode="normal" in="SourceGraphic" in2="effect1_dropShadow_146_45" result="shape"/>
</filter>
<filter id="filter1_d_146_45" x="290.209" y="0.552979" width="154.764" height="159.347" filterUnits="userSpaceOnUse" color-interpolation-filters="sRGB">
<feFlood flood-opacity="0" result="BackgroundImageFix"/>
<feColorMatrix in="SourceAlpha" type="matrix" values="0 0 0 0 0 0 0 0 0 0 0 0 0 0 0 0 0 0 127 0" result="hardAlpha"/>
<feOffset dx="7" dy="7"/>
<feGaussianBlur stdDeviation="5"/>
<feColorMatrix type="matrix" values="0 0 0 0 0 0 0 0 0 0 0 0 0 0 0 0 0 0 0.25 0"/>
<feBlend mode="normal" in2="BackgroundImageFix" result="effect1_dropShadow_146_45"/>
<feBlend mode="normal" in="SourceGraphic" in2="effect1_dropShadow_146_45" result="shape"/>
</filter>
<clipPath id="clip0_146_45">
<rect width="428" height="143" fill="white"/>
</clipPath>
</defs>
</svg>
